<svg width="301" height="188" viewBox="0 0 301 188" fill="none" xmlns="http://www.w3.org/2000/svg">
<path d="M36.9262 4.38605C36.07 4.27907 35.8559 3.85116 35.8559 2.13953V0H42.0103V10.6977H38.2641L38.1571 7.59535C37.9966 5.02791 37.836 4.54651 36.9262 4.38605Z" fill="#AFAFAF"/>
<path d="M220.862 17.1163C219.524 17.1163 219.417 16.9558 219.417 14.9767V12.8372L225.197 13.1047L226.695 17.6512C227.551 20.1651 228.247 22.3581 228.247 22.4651C228.247 22.6256 227.391 23 224.501 23.8023L223.431 20.486C222.467 17.4372 222.2 17.1163 220.862 17.1163Z" fill="#AFAFAF"/>
<path d="M197.475 23.3744C197.475 23.1605 200.419 21.1814 204.058 19.0419L210.694 15.0302L211.603 16.7419C212.085 17.7047 212.46 18.5605 212.406 18.7209C212.353 18.8814 209.409 20.7535 205.824 22.8395C202.238 24.9791 199.241 26.7442 199.081 26.7442C198.92 26.7442 198.492 26.1023 198.171 25.2465C197.796 24.4442 197.529 23.6419 197.475 23.3744Z" fill="#AFAFAF"/>
<path d="M20.9784 25.3C20.8178 19.3093 20.8714 18.9884 22.1022 17.5977C23.3331 16.314 23.4937 16.2605 24.4034 17.0628C25.3132 17.8651 25.4202 18.8279 25.3667 31.6116H21.0854L20.9784 25.3Z" fill="#AFAFAF"/>
<path d="M38.2106 31.6116L38.1036 25.3L37.9966 18.9884H41.7427L41.9568 31.6116H38.2106Z" fill="#AFAFAF"/>
<path d="M228.622 31.8791L230.174 30.7023C230.976 30.0605 231.726 29.4721 231.833 29.4721C231.886 29.4721 233.599 31.6651 239.378 39.3674L237.933 40.5442C237.131 41.1861 236.381 41.7209 236.221 41.7744C236.06 41.7744 234.294 39.5279 228.622 31.8791Z" fill="#AFAFAF"/>
<path d="M190.518 39.4744C192.338 38.5651 192.338 38.5116 192.338 34.9279V31.3442H196.619V40.9721L193.568 42.4698C191.856 43.2721 190.464 43.8605 190.464 43.807C190.464 43.7 190.09 42.8977 189.608 42.0419C188.752 40.4372 188.752 40.4372 190.518 39.4744Z" fill="#AFAFAF"/>
<path d="M21.0854 48.1395L21.0319 43.9674L20.9249 39.7419H25.2062L25.3667 48.1395H21.0854Z" fill="#AFAFAF"/>
<path d="M38.2641 48.193L38.1571 44.0209L38.0501 39.8488H41.7962L42.0103 48.193H38.2641Z" fill="#AFAFAF"/>
<path d="M164.83 46.0535C168.469 46.0535 168.63 46 170.663 43.914L172.804 41.7744H181.955V46.0535H178.102C174.303 46.0535 174.196 46.0535 170.182 50.3326H161.084V46.0535H164.83Z" fill="#AFAFAF"/>
<path d="M143.263 52.6326C143.317 52.5791 145.297 51.6163 147.651 50.386C150.006 49.2093 152.147 48.193 152.361 48.193C152.575 48.193 152.735 48.5674 152.735 49.1023C152.735 49.6372 153.11 50.386 153.592 50.8674C154.395 51.5628 154.02 51.8302 150.006 53.9163C147.544 55.1465 145.35 56.1628 145.136 56.1628C144.922 56.1628 144.387 55.414 143.905 54.4512C143.477 53.4884 143.156 52.6861 143.263 52.6326Z" fill="#AFAFAF"/>
<path d="M238.362 56.4837V52.3116V48.193H242.108V56.4837H238.362Z" fill="#AFAFAF"/>
<path d="M21.0854 64.7209L20.9784 60.5488L20.8714 56.4302H25.1527L25.3667 64.7209H21.0854Z" fill="#AFAFAF"/>
<path d="M38.2106 64.6674V60.5488V56.3767H41.9568V64.6674H38.2106Z" fill="#AFAFAF"/>
<path d="M126.78 62.0465C125.977 61.2977 126.298 61.0302 130.366 58.9977C132.774 57.7674 135.129 56.7512 135.503 56.6977C135.824 56.6977 136.145 57.1256 136.145 57.607C136.145 58.1419 136.413 58.8372 136.788 59.2116C137.162 59.586 137.376 59.9605 137.216 60.0674C137.055 60.2279 134.968 61.2977 132.56 62.5279C130.098 63.7047 128.011 64.7209 127.85 64.7209C127.69 64.7209 127.583 64.293 127.583 63.7581C127.636 63.2767 127.262 62.4744 126.78 62.0465Z" fill="#AFAFAF"/>
<path d="M240.93 64.7209C241.412 64.7209 242.322 64.4 242.91 63.9721C243.874 63.2233 244.034 63.3302 245.051 65.2558C245.747 66.6465 246.817 67.7163 248.155 68.3046C249.279 68.8395 250.189 69.3744 250.189 69.5349C250.189 69.6954 249.814 70.1767 249.332 70.6047C248.851 71.0326 248.476 71.8349 248.53 72.3163C248.53 73.1721 248.155 73.1186 245.64 71.7814C243.178 70.5512 242.482 69.8558 241.358 67.5023C240.128 64.9884 240.074 64.7209 240.93 64.7209Z" fill="#AFAFAF"/>
<path d="M105.534 73.493C105.427 73.3326 108.263 71.407 111.796 69.2674C115.328 67.0744 118.378 65.3093 118.646 65.3093C118.86 65.2558 119.395 65.9512 119.823 66.8605C120.251 67.7163 120.465 68.6256 120.305 68.8395C120.144 69.0535 117.04 70.9791 106.979 76.9698L106.337 75.3651C105.962 74.5093 105.588 73.6535 105.534 73.493Z" fill="#AFAFAF"/>
<path d="M25.0991 73.2256L26.437 71.7279C27.1863 70.8721 27.9355 70.4442 28.3101 70.7116C28.5777 70.9256 30.2367 71.1395 31.9492 71.1395C33.6082 71.1395 35.1067 70.8721 35.2672 70.6047C35.4278 70.2837 36.2305 70.7116 38.5317 73.0116L37.4614 74.2419C36.4446 75.3116 35.8559 75.4186 31.7887 75.4186C27.9355 75.3651 27.0792 75.2047 25.0991 73.2256Z" fill="#AFAFAF"/>
<path d="M256.504 75.793C256.557 75.5791 256.718 74.6698 256.878 73.814C257.039 72.9047 257.467 72.2093 257.841 72.2093C258.163 72.2093 260.089 72.6372 262.069 73.1721C264.103 73.6535 265.708 74.2419 265.708 74.4558C265.655 74.6698 265.494 75.5791 265.28 76.4884C264.906 77.986 264.745 78.093 262.979 77.7186C261.962 77.5581 260.089 77.1302 258.805 76.8093C257.52 76.4884 256.504 76.007 256.504 75.793Z" fill="#AFAFAF"/>
<path d="M273.682 79.1628V77.0233V74.8837H283.85V81.3023H281.977C280.532 81.3023 280.051 81.0349 279.837 80.2326C279.623 79.3233 279.141 79.1628 273.682 79.1628Z" fill="#AFAFAF"/>
<path d="M89.5863 78.3605L92.9043 77.4512C94.7774 76.9698 96.6504 76.5419 97.0786 76.5419C97.5602 76.4884 98.1489 77.2372 99.2192 80.2326L97.0786 80.7674C95.9012 81.0349 93.9211 81.5698 92.6902 81.8372C91.4058 82.1581 90.389 82.3186 90.3355 82.2651C90.282 82.1581 90.1214 81.2488 89.5863 78.3605Z" fill="#AFAFAF"/>
<path d="M71.3907 89.6465C71.5513 89.5395 73.799 87.8814 76.4213 85.9023C79.0436 83.9768 81.3983 82.3721 81.6659 82.3721C81.8799 82.3721 82.0405 82.6395 82.0405 83.014C81.987 83.3349 82.4151 84.0837 82.9503 84.6186C83.5389 85.1535 83.86 85.6349 83.6995 85.7419C83.5389 85.8488 81.3448 87.5605 74.0665 93.0698L72.6216 91.4116C71.7654 90.5558 71.2302 89.7535 71.3907 89.6465Z" fill="#AFAFAF"/>
<path d="M136.413 90.2884L138.019 89.0047L139.624 87.7744L140.694 89.0581C141.283 89.7535 142.193 90.9837 142.674 91.8395C143.584 93.2837 143.584 93.3372 142.032 94.514C141.122 95.2093 140.373 95.6907 140.266 95.5837C140.159 95.5302 139.249 94.3 136.413 90.2884Z" fill="#AFAFAF"/>
<path d="M281.175 90.6093C281.175 90.3419 281.924 89.8605 282.834 89.5395C283.797 89.2721 284.6 89.0047 284.707 89.0047C284.814 89.0047 285.402 90.8233 285.991 93.0163C286.58 95.2628 287.061 97.1884 287.061 97.2953C287.061 97.4558 286.366 97.7767 285.456 97.9907C284.6 98.2047 283.69 98.4186 283.476 98.4186C283.208 98.4186 282.62 96.814 282.138 94.7814C281.603 92.8023 281.175 90.9302 281.175 90.6093Z" fill="#AFAFAF"/>
<path d="M55.3358 98.3651L59.8847 96.0651L64.4871 93.7116L65.5039 95.6372C66.0926 96.707 66.5208 97.6163 66.4137 97.6698C66.3602 97.6698 64.3266 98.6861 61.9184 99.9163C59.4566 101.147 57.423 102.056 57.3695 102.002C57.2624 101.895 56.7808 101.093 55.3358 98.3651Z" fill="#AFAFAF"/>
<path d="M120.626 97.8837C121.054 97.7767 121.75 97.2419 122.178 96.7605C122.659 96.2256 123.087 95.7977 123.141 95.7977C123.195 95.7442 125.014 98.0442 127.155 100.826C129.295 103.607 130.901 105.96 130.74 106.014C130.633 106.121 129.884 106.709 127.797 108.581L123.837 103.393C121.054 99.6488 120.091 98.0442 120.626 97.8837Z" fill="#AFAFAF"/>
<path d="M145.778 102.43L147.223 100.986L148.668 99.5419L155.304 106.174L152.414 109.009L145.778 102.43Z" fill="#AFAFAF"/>
<path d="M38.9599 107.512C38.2642 106.816 38.7458 106.335 43.1341 103.34C45.8635 101.521 48.1111 100.023 48.1647 100.023C48.2182 100.023 48.3252 100.986 48.4322 102.216C48.5928 104.409 48.5928 104.463 44.7396 107.03C42.599 108.474 40.6189 109.651 40.2978 109.651C40.0302 109.651 39.7626 109.33 39.7626 108.956C39.7626 108.581 39.388 107.94 38.9599 107.512Z" fill="#AFAFAF"/>
<path d="M286.098 106.709L287.757 105.853C288.667 105.372 289.47 104.944 289.577 104.891C289.63 104.837 290.754 106.923 294.393 114.198L290.754 116.07L286.098 106.709Z" fill="#AFAFAF"/>
<path d="M256.771 112.86V110.721V108.581H259.34C260.838 108.581 262.765 109.009 264.156 109.705C265.387 110.347 266.458 110.935 266.565 111.042C266.618 111.149 266.297 111.898 265.762 112.7C265.28 113.502 264.799 114.251 264.692 114.305C264.638 114.412 263.835 114.091 262.926 113.663C262.069 113.235 260.303 112.86 256.771 112.86Z" fill="#AFAFAF"/>
<path d="M238.843 115L243.499 112.647L248.102 110.293L248.583 111.684C248.851 112.486 249.279 113.342 249.546 113.663C249.868 113.984 248.423 115 245.372 116.498C242.857 117.728 240.716 118.691 240.663 118.637C240.609 118.53 240.235 117.674 238.843 115Z" fill="#AFAFAF"/>
<path d="M18.1955 118.851C18.3561 118.637 21.4065 116.712 24.9921 114.626C31.2535 110.828 31.4676 110.774 31.8957 111.951C32.1633 112.593 32.5914 113.449 32.859 113.77C33.2336 114.305 31.5746 115.535 26.7046 118.477C23.012 120.67 19.8545 122.488 19.7475 122.488C19.587 122.488 19.1053 121.74 18.6772 120.884C18.1955 119.974 17.9815 119.119 18.1955 118.851Z" fill="#AFAFAF"/>
<path d="M131.864 115L133.577 114.251C134.54 113.823 135.396 113.449 135.45 113.449C135.557 113.395 136.681 115.481 140.32 122.756L138.34 123.398C137.269 123.719 136.36 123.986 136.306 123.933C136.306 123.879 135.289 121.847 131.865 115.001L131.864 115Z" fill="#AFAFAF"/>
<path d="M152.2 120.349C152.521 119.012 153.003 117.033 153.271 115.963L153.281 115.923C153.752 114.036 153.765 113.988 155.518 114.572C156.482 114.893 157.338 115.16 157.445 115.214C157.552 115.214 157.177 117.14 155.679 123.558L153.806 123.237C152.735 123.023 151.826 122.863 151.772 122.809C151.665 122.756 151.879 121.686 152.2 120.349Z" fill="#AFAFAF"/>
<path d="M219.042 120.456C219.042 120.242 221.504 119.547 224.554 118.905C227.551 118.316 230.495 117.781 230.976 117.728C231.672 117.674 231.94 118.049 231.94 119.012C231.94 119.76 232.047 120.67 232.207 120.991C232.421 121.472 231.03 121.953 227.498 122.649C224.768 123.184 221.932 123.772 221.236 123.933C220.059 124.147 219.845 123.933 219.47 122.542C219.256 121.633 219.096 120.723 219.042 120.456Z" fill="#AFAFAF"/>
<path d="M268.545 119.653C268.384 118.958 268.705 118.691 270.043 118.53C271.007 118.477 272.023 118.316 272.291 118.263C272.505 118.263 273.201 120.188 273.682 122.595C274.217 125.056 274.646 127.035 274.592 127.088C274.539 127.142 273.575 127.302 270.471 127.837L269.615 124.2C269.187 122.221 268.705 120.188 268.545 119.653Z" fill="#AFAFAF"/>
<path d="M0 125.805L4.76295 124.2C7.38525 123.291 9.847 122.542 10.2216 122.542C10.5962 122.488 10.9173 123.023 10.9173 123.665C10.8638 124.36 11.1849 125.163 11.5595 125.537C12.0947 126.072 12.0947 126.233 11.4525 126.5C10.9708 126.607 9.31183 127.195 4.76295 128.747L4.49537 139.605H0.214065L0 125.805Z" fill="#AFAFAF"/>
<path d="M293.162 123.933C293.002 123.237 293.323 122.97 294.661 122.809C295.624 122.756 296.641 122.595 296.908 122.542C297.176 122.542 297.444 123.13 297.551 123.933C297.658 124.788 298.246 128.533 298.835 132.384C299.477 136.181 299.905 139.337 299.798 139.391C299.691 139.444 298.781 139.605 295.892 140.033L294.661 132.437C293.965 128.319 293.323 124.467 293.162 123.933Z" fill="#AFAFAF"/>
<path d="M216.687 146.665C213.476 137.037 213.209 135.753 213.209 131.581V127.035H217.49V131.314C217.49 135.165 217.811 136.609 224.447 156.186H223.109C222.36 156.186 221.611 156.4 221.504 156.721C221.343 156.988 220.969 157.256 220.701 157.256C220.38 157.256 218.561 152.495 216.687 146.665Z" fill="#AFAFAF"/>
<path d="M144.387 130.886C145.136 131.795 145.243 131.742 146.635 130.351C147.491 129.549 148.24 128.907 148.294 128.907C148.401 128.907 149.043 129.549 151.237 131.849L147.812 135.165C145.939 137.037 144.226 138.535 144.012 138.535C143.798 138.535 142.889 137.091 142.032 135.326C141.122 133.56 140.48 132.063 140.534 131.956C140.641 131.849 141.337 131.367 142.139 130.886C143.531 130.03 143.691 130.03 144.387 130.886Z" fill="#AFAFAF"/>
<path d="M271.542 143.884L271.435 139.658L271.381 135.486H275.662L275.823 143.884H271.542Z" fill="#AFAFAF"/>
<path d="M251.58 145.007C251.527 144.74 252.276 144.258 253.346 143.991C254.363 143.67 255.433 143.402 255.701 143.349C256.022 143.349 256.611 144.151 257.841 146.986L255.433 147.842C254.149 148.27 252.972 148.644 252.918 148.644C252.864 148.644 252.757 148.056 252.757 147.307C252.757 146.558 252.543 145.863 252.222 145.702C251.955 145.542 251.634 145.221 251.58 145.007Z" fill="#AFAFAF"/>
<path d="M260.945 148.377L262.604 147.521C263.514 147.04 264.424 146.612 264.531 146.558C264.692 146.505 265.12 147.093 265.494 147.842C265.922 148.644 266.458 149.072 266.939 148.912C267.421 148.751 268.063 148.537 268.438 148.43C268.812 148.27 269.455 148.912 270.685 151.747L267.903 153.137C266.351 153.886 264.852 154.528 264.531 154.528C264.263 154.528 263.3 153.137 260.945 148.377Z" fill="#AFAFAF"/>
<path d="M2.46175 148.109C3.10395 148.109 4.01372 147.895 4.44185 147.574C5.03053 147.2 5.40515 148.163 6.42196 152.816C7.06415 155.972 7.65283 158.967 7.65283 159.502C7.65283 160.144 7.17118 160.465 5.94031 160.626C4.97702 160.733 4.12075 160.786 4.06724 160.786C3.96021 160.733 3.42504 158.379 2.83636 155.598C2.24768 152.816 1.65901 149.981 1.49846 149.34C1.28439 148.377 1.49846 148.109 2.46175 148.109Z" fill="#AFAFAF"/>
<path d="M296.694 159.074V153.458L296.641 147.842H300.922V161.481L294.768 164.584L292.895 160.947L296.694 159.074Z" fill="#AFAFAF"/>
<path d="M229.157 158.326C230.281 158.326 230.816 157.951 231.404 156.667C231.94 155.491 232.421 155.116 233.01 155.384C233.438 155.598 234.348 155.812 235.044 155.972C235.686 156.079 236.221 156.347 236.221 156.56C236.221 156.774 235.525 158.219 234.615 159.77C233.01 162.551 233.01 162.551 227.658 162.551V160.412C227.658 158.433 227.765 158.272 229.157 158.326Z" fill="#AFAFAF"/>
<path d="M279.248 172.981L282.459 169.665C284.225 167.793 285.831 166.295 285.991 166.295C286.152 166.349 286.847 166.937 288.934 169.023L282.191 175.656L279.248 172.981Z" fill="#AFAFAF"/>
<path d="M4.49537 176.993L4.38834 172.874L4.2813 168.702H8.56261L8.77667 177.26L4.49537 176.993Z" fill="#AFAFAF"/>
<path d="M267.635 181.807C267.314 181.807 268.438 180.898 270.15 179.721C272.933 177.849 273.361 177.688 273.682 178.491C273.896 179.026 274.485 179.774 274.967 180.256C275.769 180.951 275.609 181.219 269.669 185.016L268.973 183.412C268.652 182.556 268.01 181.86 267.635 181.807Z" fill="#AFAFAF"/>
<path d="M10.5962 183.84C10.5427 183.786 10.6497 182.823 10.7568 181.7C11.0244 179.988 11.1849 179.721 12.2017 179.935C12.7904 180.095 16.3225 180.684 20.0151 181.326C23.7077 181.914 27.3468 182.502 28.1496 182.663C29.3269 182.823 29.648 182.716 29.648 181.967C29.648 181.219 30.1297 181.058 33.9293 181.058V184.374C33.9293 186.674 33.7153 187.691 33.2336 187.691C32.9125 187.691 27.6679 186.888 21.6206 185.819C15.5732 184.802 10.5962 183.893 10.5962 183.84Z" fill="#AFAFAF"/>
<path d="M205.984 184.481L206.466 182.609C206.787 181.593 207.108 180.737 207.269 180.737C207.429 180.737 209.409 181.379 211.603 182.128C214.975 183.251 216.58 183.465 227.926 183.465L227.658 187.744H221.611C216.366 187.744 215.028 187.53 205.984 184.481Z" fill="#AFAFAF"/>
<path d="M235.953 187.744V185.605V183.465H261.106V187.744H235.953Z" fill="#AFAFAF"/>
</svg>
