<svg width="352" height="192" viewBox="0 0 352 192" fill="none" xmlns="http://www.w3.org/2000/svg">
<rect width="352" height="192" fill="#1E1E1E"/>
<g clip-path="url(#clip0_3321_5412)">
<rect width="390" height="844" transform="translate(-19 -116)" fill="white"/>
    <path d="M43.2538 12.9119V10.0618H0.40625L1.56308 62.2726L21.3272 62.8249L30.2146 59.6897L42.4753 64.8021L44.0322 62.2726L30.3227 56.5367L20.6569 59.9569L4.95801 59.5294L3.92007 12.9119H43.2538Z" fill="#F2622E"/>
<path d="M348.35 130.417L351.593 175.698L343.484 189.486L340.371 188.239L348.09 175.111L344.89 130.595L348.35 130.417Z" fill="#F2622E"/>
<path d="M339.592 187.438L339.721 190.288L301.231 191.499L301.101 188.649L339.592 187.438Z" fill="#F2622E"/>
<path d="M278.03 190.82V187.97H210.412V190.82H278.03Z" fill="#F2622E"/>
<path d="M236.446 4.40366V0H159.772L157.564 7.12541L147.509 11.3116L149.088 13.8767L160.505 9.08489L162.516 2.85016H232.982V4.40366H236.446Z" fill="#F2622E"/>
<path d="M144.156 14.3903L144.221 11.5402L45.6812 10.0617V12.9296L144.156 14.3903Z" fill="#F2622E"/>
<path d="M88.9054 148.418V161.315L110.032 178.291L107.653 180.321L85.4456 162.508V148.418H88.9054Z" fill="#F2622E"/>
<path d="M193.395 178.921L208.877 186.581L207.104 189.04L192.422 181.772H111.075V178.921H193.395Z" fill="#F2622E"/>
<path d="M236.446 13.8186L236.489 6.30139H232.986V13.6939L232.208 19.5546L237.268 24.7561L238.089 81.2245H241.549L240.727 23.7229L235.797 18.6817L236.446 13.8186Z" fill="#F2622E"/>
<path d="M241.549 83.681V86.5667L225.569 97.8781L198.345 98.6975L198.215 95.8474L224.229 95.0636L238.089 85.2485V83.681H241.549Z" fill="#F2622E"/>
<path d="M232.415 121.401L233.021 118.586L195.741 113.189L125.182 113.51L125.225 116.378L195.438 116.039L232.415 121.401Z" fill="#F2622E"/>
<path d="M345.433 129.113L345.887 126.299L286.098 119.619L236.753 118.568L236.666 121.418L285.86 122.469L345.433 129.113Z" fill="#F2622E"/>
<path d="M194.973 95.5915L194.886 98.4417L159.25 97.7648L126.641 91.8685L127.376 89.0896L159.618 94.9146L194.973 95.5915Z" fill="#F2622E"/>
<path d="M119.288 108.726L126.857 90.5736L123.57 89.6473L115.569 108.886L119.31 115.548L122.467 114.337L119.288 108.726Z" fill="#F2622E"/>
</g>
<defs>
<clipPath id="clip0_3321_5412">
<rect width="390" height="844" fill="white" transform="translate(-19 -116)"/>
</clipPath>
</defs>
</svg>
