<svg width="389" height="216" viewBox="0 0 389 216" fill="none" xmlns="http://www.w3.org/2000/svg">
<g id="Group">
<g id="1">
<path d="M285.507 19.3276C283.777 19.3276 282 16.7348 282 14.5L280.5 10.5C280.5 10.5 289.997 3.95645 295.5 6.5C299.637 8.41214 302.437 15.8849 302.437 15.8849C303.544 18.7236 304.443 21.2 304.443 21.3208C304.443 21.502 293.946 25.9715 290.211 26.8775L288.827 23.1328C287.582 19.69 287.236 19.3276 285.507 19.3276Z" fill="#AFAFAF"/>
<path d="M253.107 22.9222C253.107 22.6806 256.912 20.4459 261.617 18.0299L270.195 13.5L273.538 18.9048C274.161 19.992 274.645 20.9584 274.576 21.1396C274.507 21.3208 270.702 23.4348 266.067 25.7903C261.432 28.2063 257.558 30.1994 257.35 30.1994C257.143 30.1994 256.589 29.4746 256.174 28.5083C255.69 27.6023 253.177 23.2242 253.107 22.9222Z" fill="#AFAFAF"/>
<path d="M23.2445 28.3271C23.037 21.5624 23.1062 21.2 24.6973 19.6296C26.2885 18.1801 30.3701 18.3613 31.5461 19.2672C32.7222 20.1732 32.5838 28.6895 32.5147 43.1248L23.1062 42.8832L23.2445 28.3271Z" fill="#AFAFAF"/>
<path d="M45.2438 42.8832L45.2438 21.2L53.9605 21.4416L53.9605 43.1248L45.2438 42.8832Z" fill="#AFAFAF"/>
<path d="M293 31.5L295.006 30.1712C296.044 29.4464 306.402 24.7353 306.541 24.7353C306.61 24.7353 311.361 31.7094 318.833 40.4068L307.575 45.7823C306.537 46.5071 305.569 47.1111 305.361 47.1715C305.154 47.1715 300.333 40.137 293 31.5Z" fill="#AFAFAF"/>
<path d="M241.022 39.6339C243.374 38.6071 243.374 38.5467 243.374 34.5V30.4533L253.847 30L254.168 46.2655L250.225 47.9567C248.011 48.8627 241.022 52.0604 241.022 52C241.022 51.8792 237.514 43.9664 236.891 43C235.784 41.188 238.739 40.7211 241.022 39.6339Z" fill="#AFAFAF"/>
<path d="M23.1062 61.5464L23.3137 49.4063L23.1754 44.6348L32.5839 44.8764L32.5147 61.788L23.1062 61.5464Z" fill="#AFAFAF"/>
<path d="M45.313 61.6068L45.313 44.7556L54.0297 44.9972V61.8484L45.313 61.6068Z" fill="#AFAFAF"/>
<path d="M210.908 48.5313C215.612 48.5313 215.819 48.4709 218.448 46.1154L221.215 43.6994H233.045L235.558 55.7482H230.577C225.666 55.7482 225.527 55.7481 220.339 60.5801H208.578L206.065 48.5313H210.908Z" fill="#AFAFAF"/>
<path d="M176.546 58.5C176.615 58.4396 185.657 54.8128 188.701 53.4236C191.745 52.0949 194.512 50.9473 194.789 50.9473C195.065 50.9473 197.44 54.8422 197.44 55.4462C197.44 56.0501 198.27 60.6405 198.893 61.1841C199.931 61.9692 199.446 62.2712 194.258 64.6268C191.076 66.016 181.81 70.2749 181.533 70.2749C180.037 67.9228 179.164 63.0872 178.541 62C177.988 60.9128 176.408 58.5604 176.546 58.5Z" fill="#AFAFAF"/>
<path d="M308.128 63.7812L306.5 49L320.733 44.9533L322.361 59.7345L308.128 63.7812Z" fill="#AFAFAF"/>
<path d="M23.1062 77.0604L23.1062 63.4792L32.5147 63.7208L32.5147 77.302L23.1062 77.0604Z" fill="#AFAFAF"/>
<path d="M45.2438 77L45.5205 63.4188L54.2372 63.6604L53.9605 77.2416L45.2438 77Z" fill="#AFAFAF"/>
<path d="M154.894 69C153.857 68.1544 161.098 65.443 166.356 63.1479C169.469 61.7587 172.513 60.6111 172.997 60.5507C173.412 60.5507 175.994 64.506 175.994 65.0496C175.994 65.6536 175.51 64.6268 175.994 65.0496C176.479 65.4724 177.931 71.4519 177.724 71.5727C177.516 71.7539 174.818 72.9618 171.705 74.351C168.523 75.6798 161.792 79 161.585 79C161.377 79 157.096 72.104 157.096 71.5C157.165 70.9564 155.517 69.4832 154.894 69Z" fill="#AFAFAF"/>
<path d="M309.783 68.9427C310.406 68.9427 311.582 68.5803 312.343 68.0971C313.588 67.2516 323.186 63.3256 324.5 65.5C325.399 67.0704 328.449 72.4182 330.178 73.0826C331.631 73.6866 329.5 76.3188 329.5 76.5C329.5 76.6812 324.123 80.5721 323.5 81.0553C322.877 81.5385 321.203 81.1157 321.273 81.6593C321.273 82.6256 320.788 82.5652 317.537 81.0553C314.355 79.6661 313.455 78.8809 312.002 76.2234C310.411 73.3846 308.676 68.9427 309.783 68.9427Z" fill="#AFAFAF"/>
<path d="M125.493 82.5C125.354 82.3188 137.784 77.1604 142.35 74.7444C146.916 72.2681 150.859 70.2749 151.205 70.2749C151.482 70.2145 154.341 74.4718 154.894 75.4986C155.448 76.465 156.07 81.2365 155.863 81.4781C155.655 81.7197 143.517 86.5222 130.511 93.2869L128.26 86C127.776 85.0336 125.562 82.6812 125.493 82.5Z" fill="#AFAFAF"/>
<path d="M23.1062 79.7265L29.9231 80.3305C30.8916 79.3641 32.238 79.3037 32.7222 79.6057C33.0681 79.8473 39.0868 80.3305 41.3006 80.3305C43.4451 80.3305 45.3822 80.0285 45.5897 79.7265C45.7973 79.3641 50.6172 77.7333 53.5919 80.3305L46.8795 88.5C45.5651 89.708 36.8038 87.5 31.5461 87.5C26.5652 87.4396 25.6658 81.9613 23.1062 79.7265Z" fill="#AFAFAF"/>
<path d="M329.77 81.0467C329.84 80.8051 330.047 79.7784 330.255 78.812C330.462 77.7852 332.016 75 332.5 75C332.915 75 336.94 79.896 339.5 80.5C341.5 82.5 343.479 83.8336 343.479 84.0752C343.41 84.3168 343.203 85.3436 342.926 86.3704C342.442 88.0615 339.783 91.4228 337.5 91C336.186 90.8188 329.66 85.8624 328 85.5C326.34 85.1376 329.77 81.2883 329.77 81.0467Z" fill="#AFAFAF"/>
<path d="M347.5 91.8063V84.0752L372.01 84.5584L371.5 98H364C362.132 98 362.227 93.698 361.951 92.792C361.674 91.7652 354.556 91.8063 347.5 91.8063Z" fill="#AFAFAF"/>
<path d="M106.227 88.5L117.929 83.9855C120.351 83.4419 122.772 82.9587 123.326 82.9587C123.948 82.8983 127.222 90.9607 128.606 94.343L125.839 94.947C124.317 95.249 122.281 96.198 120.69 96.5C119.029 96.8624 110.785 100.06 110.715 100C109.718 98 106.919 91.7615 106.227 88.5Z" fill="#AFAFAF"/>
<path d="M84.2387 100.687C84.4463 100.566 93.2321 95.7633 96.622 93.5285C100.012 91.3541 103.056 89.5422 103.402 89.5422C103.678 89.5422 106.053 93.3162 106.053 93.739C105.984 94.1014 106.537 94.947 107.229 95.551C107.99 96.155 108.751 100.443 108.544 100.564C108.336 100.685 99.6194 105.548 90.2109 111.769L87.9971 106.152C86.8903 105.185 84.0312 100.807 84.2387 100.687Z" fill="#AFAFAF"/>
<path d="M176.34 101.953L178.416 100.504L185.202 96L186.586 97.4496C187.347 98.2347 193.51 101.691 194.132 102.657C195.309 104.288 190.598 107.463 188.591 108.792C187.415 109.577 186.447 110.12 186.308 110C186.17 109.939 180.007 106.483 176.34 101.953Z" fill="#AFAFAF"/>
<path d="M359 102.5C359 102.198 361.324 100.362 362.5 100C363.745 99.698 371.362 100 371.5 100C371.638 100 372.399 102.054 373.16 104.53C373.921 107.067 374.544 109.241 374.544 109.362C374.544 109.543 370.183 110.409 369.007 110.651C367.9 110.892 362.251 111.318 361.975 111.318C361.629 111.318 360.868 109.506 360.245 107.211C359.553 104.976 359 102.862 359 102.5Z" fill="#AFAFAF"/>
<path d="M63.4847 110.532L75.2453 105.004L81.1948 102.347L84.6765 107.993C85.4375 109.201 86.3368 113.973 86.1985 114.033C86.1293 114.033 83.5004 115.181 80.3873 116.57C77.205 117.959 68.6959 121.916 68.6267 121.856C68.4883 121.735 65.3525 113.612 63.4847 110.532Z" fill="#AFAFAF"/>
<path d="M155.932 110.53C156.485 110.409 157.385 109.805 157.938 109.262C158.561 108.658 163.825 105.06 163.895 105.06C163.964 104.999 166.316 107.597 169.083 110.737C171.85 113.878 178.913 118.603 178.705 118.663C178.567 118.784 172.887 122.563 170.189 124.677L160.083 116.751C156.485 112.523 155.24 110.711 155.932 110.53Z" fill="#AFAFAF"/>
<path d="M188.447 115.664L196.893 109.288L210.459 118.844L202.012 125.16L188.447 115.664Z" fill="#AFAFAF"/>
<path d="M42.3155 120.86C41.4162 120.075 47.9191 116.601 53.5919 113.219C57.1201 111.165 60.0257 109.474 60.0948 109.474C60.164 109.474 62.8156 117.778 62.9539 119.167C63.1615 121.643 63.1615 121.704 58.1805 124.603C55.4133 126.234 52.8536 127.562 52.4386 127.562C52.0927 127.562 45.8664 130.13 45.8664 129.707C45.8664 129.285 42.869 121.343 42.3155 120.86Z" fill="#AFAFAF"/>
<path d="M359.463 118.442L371.982 119.529C373.158 118.986 374.195 118.503 374.334 118.442C374.403 118.382 375.856 120.737 380.56 128.952L365.481 129.012L359.463 118.442Z" fill="#AFAFAF"/>
<path d="M326.824 128.71L325.164 120.798L333.587 119.529C335.524 119.529 338.014 120.013 339.813 120.798C341.404 121.522 344.614 122.5 344.614 122.5C344.614 122.5 350.293 126.094 349.601 127C348.979 127.906 342.303 129.012 342.165 129.072C342.096 129.193 341.058 128.831 339.882 128.348C338.775 127.864 331.39 128.71 326.824 128.71Z" fill="#AFAFAF"/>
<path d="M301.989 128.046L313.109 124.12L319.059 121.462L321.342 126.113C321.688 127.019 322.241 127.985 322.587 128.348C323.002 128.71 321.134 129.858 317.191 131.549C313.94 132.938 306.07 135.293 306.001 135.233C305.932 135.112 303.787 131.066 301.989 128.046Z" fill="#AFAFAF"/>
<path d="M21.354 130.734C21.5615 130.493 25.5048 128.318 30.1398 125.963C38.2339 121.674 38.5106 121.614 39.0641 122.943C39.41 123.668 42.4766 131.851 42.8225 132.213C43.3068 132.817 41.1622 134.206 34.8668 137.528C30.0934 140.005 26.0117 142.058 25.8734 142.058C25.6658 142.058 24.6973 137.468 24.1439 136.501C23.5213 135.475 21.0772 131.036 21.354 130.734Z" fill="#AFAFAF"/>
<path d="M170.46 129.858L172.674 129.012C173.919 128.529 179.737 124.991 179.806 124.991C179.944 124.931 186.384 129.354 191.089 137.568L183.818 141.407C182.434 141.77 181.258 142.072 181.189 142.011C181.189 141.951 174.887 137.589 170.46 129.858Z" fill="#AFAFAF"/>
<path d="M200.616 135.942C201.031 134.432 201.653 132.198 201.999 130.99L202.012 130.945C202.622 128.815 202.706 124.84 204.973 125.5C206.218 125.862 214.667 128.005 214.805 128.066C214.943 128.066 214.391 134.159 212.454 141.407L202.691 139.204C201.308 138.962 200.132 138.781 200.062 138.721C199.924 138.66 200.201 137.452 200.616 135.942Z" fill="#AFAFAF"/>
<path d="M275.292 135C275.292 134.758 284.676 131.911 288.62 131.186C292.494 130.522 296.299 129.918 296.921 129.858C297.821 129.797 299.827 133.3 299.827 134.387C299.827 135.233 299.965 136.26 300.173 136.622C300.449 137.166 298.651 137.709 294.085 138.495C290.557 139.099 286.89 139.763 285.991 139.944C284.469 140.186 275.278 143.07 274.794 141.5C274.517 140.473 275.361 135.302 275.292 135Z" fill="#AFAFAF"/>
<path d="M342.926 131.066C342.926 131.066 346.593 130.28 348.322 130.099C349.567 130.039 350.882 129.858 351.228 129.797C351.504 129.797 353.165 135.716 353.787 138.434C354.479 141.213 355.033 143.447 354.963 143.508C354.894 143.568 350.19 143.447 346.177 144.051L345.071 139.944C344.517 137.709 342.926 131.066 342.926 131.066Z" fill="#AFAFAF"/>
<path d="M0 142.058L3.98974 136.774C7.37957 135.747 15.9734 133 16.4577 133C16.942 132.94 18.9513 136.775 18.9513 137.5C19.45 138 19.9487 140.5 19.9487 141C18.9513 141.5 15.6347 142.541 14.8046 142.843C14.1819 142.964 11.4705 143.343 7.97949 148V157.641H0.276721L0 142.058Z" fill="#AFAFAF"/>
<path d="M368.594 137.891C368.387 137.105 379.176 138.857 380.906 138.676C382.151 138.615 383.466 138.434 383.811 138.374C384.157 138.374 384.503 139.038 384.642 139.944C384.78 140.911 385.541 145.138 386.302 149.487C387.132 153.775 387.686 157.339 387.547 157.399C387.409 157.46 375.858 155.587 372.123 156.071L370.531 147.494C369.632 142.843 368.802 138.495 368.594 137.891Z" fill="#AFAFAF"/>
<path d="M280.11 165.614C275.96 154.742 275.614 153.292 275.614 148.581V143.447L285.991 142.168V147C285.991 151.349 286.406 152.979 294.984 175.085L288.412 176.365C287.444 176.365 286.475 176.606 286.337 176.969C286.129 177.271 285.645 177.573 285.299 177.573C284.884 177.573 282.532 172.197 280.11 165.614Z" fill="#AFAFAF"/>
<path d="M186.648 147.796C187.617 148.823 187.755 148.762 189.554 147.192C190.66 146.286 196.34 142.447 196.409 142.447C196.548 142.447 202.365 145.238 205.201 147.836L196.063 154.695C193.641 156.809 191.428 158.5 191.151 158.5C190.874 158.5 184.711 154.802 183.604 152.809C182.428 150.816 181.598 149.125 181.667 149.004C181.805 148.883 182.705 148.34 183.742 147.796C185.541 146.83 185.749 146.83 186.648 147.796Z" fill="#AFAFAF"/>
<path d="M347.561 162.171L347.423 157.399L346.593 148.944L355.586 149.246L356.555 162.473L347.561 162.171Z" fill="#AFAFAF"/>
<path d="M334.64 165.5L336.784 164.534C337.96 163.99 339.136 163.507 339.275 163.446C339.482 163.386 340.036 164.05 340.52 164.896C341.073 165.802 344.448 166.181 345.071 166C345.693 165.819 347.838 165.621 348.322 165.5C348.806 165.319 352.594 165.5 356.555 166.942L350.1 175C348.094 175.846 341.186 176.787 340.771 176.787C340.425 176.787 337.684 170.875 334.64 165.5Z" fill="#AFAFAF"/>
<path d="M1 160.5C1.83016 160.5 7.94656 159.862 8.5 159.5C9.26098 159.077 12.3832 166.245 13.6977 171.5C14.5278 175.064 15.2888 178.446 15.2888 179.05C15.2888 179.775 9.27014 181.197 7.679 181.378C6.43375 181.499 5.32687 181.559 5.25769 181.559C5.11933 181.499 4.42753 178.841 3.66655 175.7C2.90557 172.56 2.14458 169.358 1.93704 168.634C1.66032 167.546 -0.245243 160.5 1 160.5Z" fill="#AFAFAF"/>
<path d="M373.16 177.573V171.231L373.091 164.889L389 166.942V182.344L381.044 185.847L368.249 179.687L373.16 177.573Z" fill="#AFAFAF"/>
<path d="M294.984 176.365C296.437 176.365 298.374 178.358 299.135 176.908C299.827 175.579 300.449 175.157 301.21 175.459C301.764 175.7 302.94 175.942 303.839 176.123C304.669 176.244 305.361 176.546 305.361 176.787C305.361 177.029 305.893 180.248 304.717 182C302.641 185.141 300.663 185 293.745 185L288.412 181C288.412 178.765 293.186 176.304 294.984 176.365Z" fill="#AFAFAF"/>
<path d="M355.448 194.5L362.434 189.652C364.717 187.538 366.792 185.847 367 185.847C367.208 185.908 370.806 188.505 373.504 190.86L360 202L355.448 194.5Z" fill="#AFAFAF"/>
<path d="M5.25769 201L5.39605 185.666L16.3265 184.607L16.4577 200L5.25769 201Z" fill="#AFAFAF"/>
<path d="M338.5 202C338.085 202 345.038 199.473 347.251 198.144C350.849 196.031 351.402 195.849 351.817 196.755C352.094 197.359 354.825 203.001 355.448 203.544C356.485 204.329 349.679 206.712 342 211L340.771 206.5C340.356 205.534 338.984 202.06 338.5 202Z" fill="#AFAFAF"/>
<path d="M4.60137 210.04C4.53219 209.98 5.11933 205.719 5.25769 204.45C5.60359 202.517 5.81113 202.215 7.12555 202.457C7.88654 202.638 21.0999 204.027 25.8734 204.752C30.6468 205.417 35.3511 206.081 36.3888 206.262C37.9107 206.443 38.3258 206.323 38.3258 205.477C38.3258 204.631 38.9484 204.45 43.8602 204.45V208.195C43.8602 210.792 43.1347 215.114 42.5121 215.114C42.097 215.114 35.3174 214.208 27.5 213C19.6826 211.852 4.60137 210.101 4.60137 210.04Z" fill="#AFAFAF"/>
<path d="M266.274 208.316L266.897 206.202C267.312 205.054 265.757 199.292 265.965 199.292C266.172 199.292 268.732 200.017 271.568 200.862C275.927 202.131 278.002 202.372 292.668 202.372L294.292 212H286.475C279.695 212 277.966 211.758 266.274 208.316Z" fill="#AFAFAF"/>
<path d="M305.015 212L303.045 202.372H335.56L337.53 212H305.015Z" fill="#AFAFAF"/>
<path d="M41.4594 2.17436C41.4594 4.10713 41.7589 4.59032 42.8658 4.71111C44.0418 4.89231 45.2438 5.4359 45.4514 8.33504L45.313 19.2672L54.0297 19.5088L54.3064 0H45.3534C45.3534 0 41.4594 0.241598 41.4594 2.17436Z" fill="#AFAFAF"/>
</g>
</g>
</svg>
