<svg width="35" height="16" viewBox="0 0 35 16" fill="none" xmlns="http://www.w3.org/2000/svg">
<path d="M6.22268 13.8822C9.07358 13.8822 10.767 11.6527 10.767 7.87741C10.767 6.45585 10.4951 5.25956 9.97468 4.33515C9.22117 2.89805 7.9239 2.12124 6.28482 2.12124C3.84563 2.12124 2.12111 3.76031 2.12111 6.05967C2.12111 8.21921 3.67474 9.78837 5.81097 9.78837C7.12378 9.78837 8.18801 9.17469 8.71624 8.11046H8.73955C8.73955 8.11046 8.77062 8.11046 8.77839 8.11046C8.79392 8.11046 8.8483 8.11046 8.8483 8.11046C8.8483 10.6739 7.87729 12.2043 6.23821 12.2043C5.27497 12.2043 4.52923 11.676 4.27288 10.8293H2.27648C2.6105 12.6703 4.1719 13.8822 6.22268 13.8822ZM6.29259 8.1959C5.00308 8.1959 4.08645 7.27927 4.08645 5.99753C4.08645 4.74686 5.04969 3.79138 6.30036 3.79138C7.55103 3.79138 8.51427 4.7624 8.51427 6.0286C8.51427 7.27927 7.57433 8.1959 6.29259 8.1959Z" fill="#2B2B2B"/>
<path d="M14.0455 13.7734C14.7835 13.7734 15.2884 13.2452 15.2884 12.546C15.2884 11.8392 14.7835 11.3187 14.0455 11.3187C13.3153 11.3187 12.8026 11.8392 12.8026 12.546C12.8026 13.2452 13.3153 13.7734 14.0455 13.7734ZM14.0455 7.94732C14.7835 7.94732 15.2884 7.42686 15.2884 6.72773C15.2884 6.02083 14.7835 5.50037 14.0455 5.50037C13.3153 5.50037 12.8026 6.02083 12.8026 6.72773C12.8026 7.42686 13.3153 7.94732 14.0455 7.94732Z" fill="#2B2B2B"/>
<path d="M22.5596 13.6103H24.4784V11.5207H25.9932V9.82721H24.4784V2.40089H21.6508C19.6699 5.38385 18.093 7.87741 17.0831 9.73399V11.5207H22.5596V13.6103ZM18.9397 9.7573C20.2447 7.45793 21.41 5.61689 22.482 4.0322H22.5907V9.87382H18.9397V9.7573Z" fill="#2B2B2B"/>
<path d="M30.2659 13.6103H32.2701V2.40089H30.2737L27.3451 4.45167V6.37817L30.1339 4.4206H30.2659V13.6103Z" fill="#2B2B2B"/>
</svg>
