<svg width="136" height="265" viewBox="0 0 136 265" fill="none" xmlns="http://www.w3.org/2000/svg">
<g clip-path="url(#clip0_3379_3734)">
<path d="M41.6308 60.2299L43.5508 70.5999C44.7008 76.7899 50.7008 80.9099 56.8808 79.7699L61.1208 78.9899C67.3108 77.8399 71.4308 71.8499 70.2808 65.6599L68.3108 55.0199C68.2708 54.7999 68.2008 54.5799 68.1008 54.3799C67.3308 52.8199 66.4208 51.0799 65.5408 49.7499C64.6608 48.4199 62.7708 48.2299 61.6508 49.3799C59.1908 51.9099 53.7208 56.0399 44.7808 55.2599C43.5608 55.1499 42.4308 55.9199 42.1208 57.1099C41.9408 57.7799 41.7608 58.5699 41.6208 59.3899C41.5708 59.6699 41.5808 59.9699 41.6308 60.2499V60.2299Z" stroke="#F5F5F5" stroke-width="4" stroke-miterlimit="10"/>
<path d="M42.1206 64.8796C41.3206 63.6596 41.3406 61.6296 41.6306 59.7196C41.8606 58.1696 42.2706 56.6996 42.5506 55.7996C42.7106 55.2896 43.2006 54.9696 43.7306 55.0396C53.8306 56.3496 59.7506 51.4696 62.1006 48.9096C62.9606 47.9696 64.4706 48.0396 65.2106 49.0696C66.2706 50.5296 67.4206 52.7296 68.3306 54.6096C69.3006 56.6296 70.0006 58.2896 70.0006 58.2896C70.0006 58.2896 70.8006 52.0996 70.2206 45.6496C69.6406 39.1996 63.5806 41.3496 63.5806 41.3496C60.3206 33.1396 51.2206 36.2596 51.2206 36.2596C26.7006 44.0796 42.1106 64.8996 42.1106 64.8996L42.1206 64.8796Z" stroke="#F5F5F5" stroke-width="4" stroke-miterlimit="10"/>
<path d="M7.79043 91.64C9.38043 90.04 11.6004 89.27 13.8404 89.46C20.3704 89.99 34.1204 92.1 27.6504 100.37C22.6304 106.8 15.8404 109.27 11.2204 110.22C5.50043 111.39 0.490427 105.82 2.41043 100.31C2.44043 100.23 2.46043 100.16 2.49043 100.08C3.95043 96.12 6.07043 93.37 7.79043 91.64Z" stroke="#F5F5F5" stroke-width="4" stroke-miterlimit="10"/>
<path d="M109.39 73.6402C109.39 73.6402 110.46 82.0002 120.48 79.0502C130.5 76.1002 132.02 79.8902 132.87 75.1602C133.72 70.4402 124.78 63.8302 120.14 63.5802C115.5 63.3302 108.78 64.5101 109.39 73.6301V73.6402Z" stroke="#F5F5F5" stroke-width="5" stroke-miterlimit="10"/>
<path d="M48.83 141.27L46.68 216.11C46.63 219.17 48.09 222.08 50.62 223.81C53.7 225.93 58.18 227.75 62.73 225.17C65.92 223.37 67.76 219.86 67.68 216.2L66.41 160.54C66.35 158.08 67.77 155.83 70 154.8L81.53 149.51C83.09 148.79 84.87 149.93 84.87 151.65V162.72C84.87 165.36 85.88 167.9 87.72 169.8C91.2 173.38 97.51 176.84 104.58 166.34V136.78C104.58 136.78 101.1 126.35 90.96 128.66C80.82 130.98 48.84 141.26 48.84 141.26L48.83 141.27Z" stroke="#F5F5F5" stroke-width="4" stroke-miterlimit="10"/>
<path d="M101.171 84.1908C99.8109 85.6908 97.7709 86.3807 95.7709 86.0407C87.9409 84.6707 66.5009 82.1507 53.7309 92.4307C42.6809 101.331 36.3309 108.151 33.4909 111.471C32.7009 112.401 31.2109 112.141 30.7809 111.001C28.7509 105.611 22.9609 93.3307 16.9209 102.321C15.3209 104.711 14.9909 108.881 14.6509 111.741C13.7509 119.391 12.2109 136.751 18.1709 140.571C24.1709 144.411 38.9709 130.621 44.7709 124.291C45.6209 123.371 47.1509 123.961 47.1509 125.221V129.241C47.1509 130.591 48.5109 131.511 49.7609 131.021L73.2609 121.711C74.8709 121.071 75.9309 119.511 75.9309 117.781V108.081C75.9309 106.181 77.4909 104.651 79.3909 104.691L100.461 105.131C102.601 105.171 104.701 104.611 106.511 103.471C111.361 100.431 120.941 93.5208 125.591 83.9408C131.971 70.8008 117.281 68.2208 111.291 76.7308C108.251 81.0408 102.771 82.4307 101.151 84.2107L101.171 84.1908Z" fill="#FF0046" stroke="#F5F5F5" stroke-width="4" stroke-miterlimit="10"/>
<path d="M94.3007 177.051C94.3007 177.051 85.0307 185.091 94.3007 185.231C94.3007 185.231 105.001 177.601 110.651 180.801C116.311 184.001 123.051 185.981 123.191 181.961C123.331 177.941 116.131 168.991 110.381 169.561C105.981 170.001 101.321 170.451 94.3007 177.061V177.051Z" stroke="#F5F5F5" stroke-width="4" stroke-miterlimit="10"/>
<path d="M110.871 2.01032C104.921 1.79032 99.6205 5.93032 97.9705 11.6503C97.9305 11.8003 97.8905 11.9503 97.8405 12.1003C96.4805 17.1003 87.9405 23.9103 89.3005 26.5503C90.6605 29.1803 93.2105 29.4603 100.381 25.6403C106.531 22.3703 112.951 20.9703 114.661 20.6303C114.991 20.5703 115.281 20.4503 115.561 20.2803C116.941 19.4103 120.881 16.5203 119.821 12.3803C118.871 8.63032 118.011 2.28032 110.861 2.02032L110.871 2.01032Z" stroke="#F5F5F5" stroke-width="4" stroke-miterlimit="10"/>
<path d="M35.2303 245.891C39.1003 241.361 45.7303 240.261 51.0603 242.911C51.2003 242.981 51.3403 243.051 51.4703 243.121C56.0703 245.501 66.8703 243.821 67.8903 246.601C68.9103 249.381 67.3903 251.441 59.7203 254.151C53.1503 256.471 47.7803 260.251 46.3703 261.281C46.1003 261.481 45.8203 261.621 45.5003 261.701C43.9303 262.131 39.1303 263.071 36.7903 259.491C34.6803 256.251 30.5703 251.331 35.2203 245.881L35.2303 245.891Z" stroke="#F5F5F5" stroke-width="4" stroke-miterlimit="10"/>
</g>
<defs>
<clipPath id="clip0_3379_3734">
<rect width="135.43" height="264.15" fill="white"/>
</clipPath>
</defs>
</svg>
