<svg width="20" height="21" viewBox="0 0 20 21" fill="none" xmlns="http://www.w3.org/2000/svg">
<path d="M12.4997 6.3335C12.4997 7.71421 11.3804 8.8335 9.99967 8.8335C8.61896 8.8335 7.49967 7.71421 7.49967 6.3335C7.49967 4.95278 8.61896 3.8335 9.99967 3.8335C11.3804 3.8335 12.4997 4.95278 12.4997 6.3335Z" stroke="white" stroke-width="1.5" stroke-linecap="round" stroke-linejoin="round"/>
<path d="M8.33301 13.8335C8.33301 15.2142 7.21372 16.3335 5.83301 16.3335C4.4523 16.3335 3.33301 15.2142 3.33301 13.8335C3.33301 12.4528 4.4523 11.3335 5.83301 11.3335C7.21372 11.3335 8.33301 12.4528 8.33301 13.8335Z" stroke="white" stroke-width="1.5" stroke-linecap="round" stroke-linejoin="round"/>
<path d="M16.6663 13.8335C16.6663 15.2142 15.5471 16.3335 14.1663 16.3335C12.7856 16.3335 11.6663 15.2142 11.6663 13.8335C11.6663 12.4528 12.7856 11.3335 14.1663 11.3335C15.5471 11.3335 16.6663 12.4528 16.6663 13.8335Z" stroke="white" stroke-width="1.5" stroke-linecap="round" stroke-linejoin="round"/>
</svg>
