<svg width="139" height="187" viewBox="0 0 139 187" fill="none" xmlns="http://www.w3.org/2000/svg">
<g clip-path="url(#clip0_3379_3863)">
<path d="M126.959 57.2402V69.9202C126.959 71.8602 126.029 73.5902 124.579 74.6702C123.589 75.4302 122.339 75.8802 120.999 75.8802H13.9395C11.8795 75.8802 10.0695 74.8402 8.99949 73.2502C8.35949 72.3002 7.97949 71.1502 7.97949 69.9202V57.2402C7.97949 53.8802 10.6995 51.1602 14.0595 51.1602H120.879C124.239 51.1602 126.959 53.8802 126.959 57.2402Z" stroke="#F5F5F5" stroke-width="5" stroke-miterlimit="10"/>
<path d="M128.24 125.619C128.19 125.649 128.14 125.669 128.09 125.689C112.35 132.149 104.96 114.729 102.7 107.789C102.46 107.069 101.46 107.079 101.23 107.799C99.8699 112.089 95.9999 120.209 85.9099 122.939C75.1499 125.859 71.8099 113.659 70.8499 107.929C70.8299 107.779 70.6099 107.799 70.6099 107.949C70.5199 113.089 68.8699 123.489 57.1099 124.989C42.2399 126.879 38.0099 113.889 36.8599 107.939C36.7099 107.159 35.6499 107.009 35.3099 107.729C32.4799 113.649 24.4199 127.089 11.3099 122.389C9.31991 121.679 7.73991 120.589 6.48991 119.199C-1.80009 109.989 4.86991 87.7791 8.34991 78.1091C9.06991 76.1191 11.2399 75.1891 13.2499 75.8291C13.8199 76.0091 14.4299 76.1091 15.0699 76.1091H122.13C122.22 76.1091 122.3 76.1091 122.39 76.1091C124.51 76.0191 126.92 77.5191 127.76 79.4691C133.24 92.2491 142.82 119.449 128.24 125.629V125.619Z" stroke="#F5F5F5" stroke-width="5" stroke-miterlimit="10"/>
<path d="M125.709 74.8891C125.079 73.5491 124.689 72.7891 124.689 72.7891" stroke="#F5F5F5" stroke-width="5" stroke-miterlimit="10"/>
<path d="M58.4197 183.74V150.85C58.4197 149.49 57.3197 148.4 55.9697 148.4H33.1697C31.8097 148.4 30.7197 149.5 30.7197 150.85V183.74" stroke="#F5F5F5" stroke-width="5" stroke-miterlimit="10"/>
<path d="M52.7097 183.65V156.04C52.7097 154.9 52.0597 153.98 51.2697 153.98H37.8697C37.0697 153.98 36.4297 154.9 36.4297 156.04V183.65H52.7197H52.7097Z" fill="#FF0046" stroke="#F5F5F5" stroke-width="2" stroke-miterlimit="10"/>
<path d="M122.61 60.6298V66.4498C122.61 67.3398 121.78 68.1298 120.47 68.6298C119.58 68.9798 118.46 69.1898 117.26 69.1898H21.1898C19.3398 69.1898 17.7198 68.7098 16.7598 67.9798C16.1898 67.5398 15.8398 67.0198 15.8398 66.4498V60.6298C15.8398 59.0898 18.2798 57.8398 21.2998 57.8398H117.15C120.16 57.8398 122.61 59.0898 122.61 60.6298Z" stroke="#FF0046" stroke-width="2" stroke-miterlimit="10"/>
<path d="M128.24 125.621V174.161C128.24 179.451 123.95 183.741 118.66 183.741H16.0702C10.7802 183.741 6.49023 179.451 6.49023 174.161V119.501C6.49023 119.391 6.62023 119.341 6.70023 119.421C7.92023 120.701 9.43024 121.721 11.3102 122.391C24.4202 127.091 32.4802 113.651 35.3102 107.731C35.6502 107.011 36.7102 107.161 36.8602 107.941C38.0102 113.891 42.2402 126.881 57.1102 124.991C68.8702 123.501 70.5202 113.091 70.6102 107.951C70.6102 107.801 70.8302 107.791 70.8502 107.931C71.8202 113.671 75.1602 125.861 85.9102 122.941C96.0002 120.211 99.8702 112.091 101.23 107.801C101.46 107.081 102.46 107.071 102.7 107.791C104.96 114.731 112.35 132.151 128.09 125.691C128.14 125.671 128.19 125.651 128.24 125.621Z" stroke="#F5F5F5" stroke-width="5" stroke-miterlimit="10"/>
<path d="M87.33 1H51.12C49.673 1 48.5 2.17301 48.5 3.62V39.83C48.5 41.277 49.673 42.45 51.12 42.45H87.33C88.777 42.45 89.95 41.277 89.95 39.83V3.62C89.95 2.17301 88.777 1 87.33 1Z" stroke="#F5F5F5" stroke-width="2" stroke-miterlimit="10"/>
</g>
<defs>
<clipPath id="clip0_3379_3863">
<rect width="138.45" height="186.24" fill="white"/>
</clipPath>
</defs>
</svg>
