<svg width="135" height="191" viewBox="0 0 135 191" fill="none" xmlns="http://www.w3.org/2000/svg">
<g clip-path="url(#clip0_3379_3699)">
<path d="M111.16 42.3998V83.0098H97.8498V50.5298C97.8498 39.1498 92.0998 28.3698 82.3298 22.5198C72.7998 16.8198 63.6398 18.0998 56.0398 21.7298C43.8198 27.5698 36.3198 40.1998 36.3198 53.7398V83.0098H23.0098V46.4098C23.0098 29.4798 33.7598 13.6898 51.2598 6.38983C62.1498 1.83983 75.2798 0.249831 88.9198 7.37983C102.93 14.6798 111.16 28.1598 111.16 42.3998Z" fill="#FF0046" stroke="#F5F5F5" stroke-width="5" stroke-miterlimit="10"/>
<path d="M116.06 83.0098H18.54C9.68 83.0098 2.5 90.1898 2.5 99.0498V171.48C2.5 180.34 9.68 187.52 18.54 187.52H116.07C124.92 187.52 132.1 180.34 132.1 171.49V99.0498C132.1 90.1898 124.92 83.0098 116.06 83.0098ZM75.01 128.49C75.21 129.06 75.33 129.67 75.33 130.31V153.44C75.33 156.44 72.87 158.89 69.88 158.89H64.05C61.05 158.89 58.6 156.44 58.6 153.44V130.31C58.6 129.97 58.63 129.63 58.69 129.31C58.84 128.53 58.56 127.75 58.05 127.15C56.17 124.95 55.19 121.96 55.65 118.76C56.32 114.11 60.18 110.41 64.85 109.9C71.18 109.2 76.54 114.14 76.54 120.33C76.54 122.14 76.07 123.85 75.27 125.34C74.74 126.31 74.64 127.45 75.01 128.49Z" fill="#210124" stroke="#F5F5F5" stroke-width="5" stroke-miterlimit="10"/>
<path d="M75.0096 128.49C75.2096 129.06 75.3296 129.67 75.3296 130.31V153.44C75.3296 156.44 72.8696 158.89 69.8796 158.89H64.0496C61.0496 158.89 58.5996 156.44 58.5996 153.44V130.31C58.5996 129.97 58.6296 129.63 58.6896 129.31C58.8396 128.53 58.5596 127.75 58.0496 127.15C56.1696 124.95 55.1896 121.96 55.6496 118.76C56.3196 114.11 60.1796 110.41 64.8496 109.9C71.1796 109.2 76.5396 114.14 76.5396 120.33C76.5396 122.14 76.0696 123.85 75.2696 125.34C74.7396 126.31 74.6396 127.45 75.0096 128.49Z" fill="#FF0046" stroke="#F5F5F5" stroke-width="5" stroke-miterlimit="10"/>
<path d="M34.1896 103.949C34.1896 103.949 24.8196 106.329 23.5996 121.089" stroke="#F5F5F5" stroke-width="5" stroke-miterlimit="10" stroke-linecap="round"/>
</g>
<defs>
<clipPath id="clip0_3379_3699">
<rect width="134.6" height="190.02" fill="white"/>
</clipPath>
</defs>
</svg>
