<svg width="135" height="204" viewBox="0 0 135 204" fill="none" xmlns="http://www.w3.org/2000/svg">
<g clip-path="url(#clip0_3379_3967)">
<path d="M123 68.7003L103.91 96.3903H87.7596L107.17 68.2303C113.99 58.3203 115.73 45.6803 111.19 35.0403C106.76 24.6703 98.4496 20.5903 90.0196 19.4303C76.4496 17.5803 62.6996 24.3203 54.5796 36.1003L37.0196 61.5703L26.0596 54.0203L48.0196 22.1703C58.1696 7.43032 76.4996 -0.209684 95.2796 3.37032C106.98 5.59032 118.74 11.6603 125.7 25.6103C132.85 39.9103 131.54 56.3103 123 68.7003Z" fill="#FF0046" stroke="#F5F5F5" stroke-width="5" stroke-miterlimit="10"/>
<path d="M75.2599 138.721C76.0699 137.241 76.5299 135.531 76.5299 133.721C76.5299 127.531 71.1799 122.591 64.8499 123.281C60.1799 123.791 56.3199 127.491 55.6499 132.141C55.1799 135.351 56.1599 138.331 58.0499 140.531C58.5599 141.131 58.8299 141.921 58.6899 142.691C58.6199 143.021 58.5899 143.351 58.5899 143.701V166.831C58.5899 169.821 61.0399 172.281 64.0399 172.281H69.8699C72.8699 172.281 75.3199 169.821 75.3199 166.831V143.701C75.3199 143.061 75.2099 142.441 75.0099 141.871C74.6299 140.841 74.7299 139.691 75.2599 138.721Z" stroke="#F5F5F5" stroke-width="5" stroke-miterlimit="10"/>
<path d="M116.06 96.3906H18.54C9.68 96.3906 2.5 103.581 2.5 112.431V184.871C2.5 193.721 9.68 200.911 18.54 200.911H116.07C124.92 200.911 132.1 193.721 132.1 184.871V112.431C132.1 103.581 124.92 96.3906 116.06 96.3906ZM75.01 141.871C75.21 142.441 75.32 143.061 75.32 143.701V166.831C75.32 169.821 72.87 172.281 69.87 172.281H64.04C61.04 172.281 58.59 169.821 58.59 166.831V143.701C58.59 143.351 58.62 143.021 58.69 142.691C58.83 141.921 58.56 141.131 58.05 140.531C56.16 138.331 55.18 135.351 55.65 132.141C56.32 127.491 60.18 123.791 64.85 123.281C71.18 122.591 76.53 127.531 76.53 133.721C76.53 135.531 76.07 137.241 75.26 138.721C74.73 139.691 74.63 140.841 75.01 141.871Z" fill="#210124" stroke="#F5F5F5" stroke-width="5" stroke-miterlimit="10"/>
<path d="M75.0099 141.871C75.2099 142.441 75.3199 143.061 75.3199 143.701V166.831C75.3199 169.821 72.8699 172.281 69.8699 172.281H64.0399C61.0399 172.281 58.5899 169.821 58.5899 166.831V143.701C58.5899 143.351 58.6199 143.021 58.6899 142.691C58.8299 141.921 58.5599 141.131 58.0499 140.531C56.1599 138.331 55.1799 135.351 55.6499 132.141C56.3199 127.491 60.1799 123.791 64.8499 123.281C71.1799 122.591 76.5299 127.531 76.5299 133.721C76.5299 135.531 76.0699 137.241 75.2599 138.721C74.7299 139.691 74.6299 140.841 75.0099 141.871Z" fill="#FF0046" stroke="#F5F5F5" stroke-width="5" stroke-miterlimit="10"/>
<path d="M34.1798 117.34C34.1798 117.34 24.8098 119.72 23.5898 134.48" stroke="#F5F5F5" stroke-width="5" stroke-miterlimit="10" stroke-linecap="round"/>
</g>
<defs>
<clipPath id="clip0_3379_3967">
<rect width="134.6" height="203.41" fill="white"/>
</clipPath>
</defs>
</svg>
