<svg width="182" height="181" viewBox="0 0 182 181" fill="none" xmlns="http://www.w3.org/2000/svg">
<g clip-path="url(#clip0_3379_3746)">
<path d="M90.9201 13.0602L99.8601 6.2402C109.63 -1.2098 123.83 2.9502 128.02 14.5102L131.85 25.0802L143.05 24.1802C155.3 23.1902 164.99 34.3802 162.27 46.3602L159.78 57.3202L169.69 62.6202C180.53 68.4102 182.64 83.0602 173.87 91.6702L165.85 99.5502L171.33 109.37C177.32 120.1 171.17 133.57 159.14 136.07L148.14 138.36L147.44 149.58C146.67 161.85 134.22 169.85 122.75 165.45L112.25 161.43L105.6 170.49C98.3201 180.4 83.5201 180.4 76.2501 170.49L69.6001 161.43L59.1001 165.45C47.6201 169.85 35.1701 161.85 34.4101 149.58L33.7101 138.36L22.7101 136.07C10.6801 133.57 4.53012 120.1 10.5201 109.37L16.0001 99.5502L7.98012 91.6702C-0.789879 83.0602 1.32012 68.4102 12.1601 62.6202L22.0701 57.3202L19.5801 46.3602C16.8601 34.3702 26.5501 23.1902 38.8001 24.1802L50.0001 25.0802L53.8301 14.5102C58.0201 2.9602 72.2201 -1.2098 81.9901 6.2402L90.9301 13.0602H90.9201Z" stroke="#F5F5F5" stroke-width="5" stroke-miterlimit="10"/>
<path d="M90.9203 25.1602L95.4003 21.7402C105.17 14.2902 119.37 18.4502 123.56 30.0102L125.48 35.3002L131.09 34.8502C143.34 33.8602 153.03 45.0502 150.31 57.0302L149.06 62.5202L154.03 65.1702C164.87 70.9602 166.98 85.6102 158.21 94.2202L154.19 98.1702L156.93 103.09C162.92 113.82 156.77 127.29 144.74 129.79L139.23 130.94L138.88 136.56C138.11 148.83 125.66 156.83 114.19 152.43L108.93 150.41L105.6 154.95C98.3203 164.86 83.5203 164.86 76.2503 154.95L72.9203 150.41L67.6603 152.43C56.1803 156.83 43.7303 148.83 42.9703 136.56L42.6203 130.94L37.1103 129.79C25.0803 127.29 18.9303 113.82 24.9203 103.09L27.6603 98.1702L23.6403 94.2202C14.8703 85.6102 16.9803 70.9602 27.8203 65.1702L32.7903 62.5202L31.5403 57.0302C28.8203 45.0402 38.5103 33.8602 50.7603 34.8502L56.3703 35.3002L58.2903 30.0102C62.4803 18.4602 76.6803 14.2902 86.4503 21.7402L90.9303 25.1602H90.9203Z" fill="#FF0046" stroke="#F5F5F5" stroke-width="5" stroke-miterlimit="10"/>
<path d="M50.12 89.6495L57.98 82.2595C59.58 80.7595 62.08 80.7995 63.63 82.3495L75.81 94.5295C77.38 96.0995 79.93 96.1195 81.52 94.5595L117.92 58.8795C119.49 57.3395 122.01 57.3295 123.59 58.8795L131.77 66.8695C133.39 68.4495 133.4 71.0595 131.79 72.6595L82.32 121.529C80.74 123.089 78.21 123.089 76.63 121.539L50.05 95.5095C48.4 93.8995 48.43 91.2395 50.11 89.6595L50.12 89.6495Z" fill="white" stroke="#F5F5F5" stroke-width="5" stroke-miterlimit="10"/>
</g>
<defs>
<clipPath id="clip0_3379_3746">
<rect width="181.83" height="180.41" fill="white"/>
</clipPath>
</defs>
</svg>
