<svg width="201" height="181" viewBox="0 0 201 181" fill="none" xmlns="http://www.w3.org/2000/svg">
<g clip-path="url(#clip0_3379_3939)">
<path d="M167 102.22L165.6 168.52C165.48 174.15 160.83 178.61 155.2 178.49L37.1197 175.99C31.4997 175.87 27.0397 171.22 27.1597 165.6L28.5597 99.2798C28.5597 99.1298 28.5697 98.9798 28.5797 98.8398C28.6897 97.1698 27.3697 95.7498 25.6897 95.7198L8.04967 95.4298C2.98967 95.3398 0.599666 89.1398 4.28967 85.6798L87.6097 7.58977C89.7097 5.62977 92.9497 5.54977 95.1397 7.42977L114.71 24.1998C110.65 30.9398 108.31 38.8398 108.31 47.2798C108.31 51.6098 108.92 55.7998 110.06 59.7498C110.53 61.3498 111.08 62.9198 111.71 64.4398L123.97 81.2998L147.84 114.15C150.43 117.72 155.74 117.72 158.33 114.15L167 102.22Z" stroke="#F5F5F5" stroke-width="5" stroke-miterlimit="10"/>
<path d="M185.92 98.3995L170.96 98.1495C170.57 98.1495 170.2 98.1895 169.85 98.2995L181.86 81.7695L189.68 88.4795C193.69 91.9195 191.2 98.4895 185.92 98.3995Z" stroke="white" stroke-width="5" stroke-miterlimit="10"/>
<path d="M197.85 45.9395C197.17 22.5995 178.25 3.46949 154.91 2.53949C137.87 1.86949 122.84 10.7195 114.71 24.1995C110.65 30.9395 108.31 38.8395 108.31 47.2795C108.31 51.6095 108.92 55.7995 110.06 59.7495C110.53 61.3495 111.08 62.9195 111.71 64.4395L123.97 81.2995L147.84 114.149C150.43 117.719 155.74 117.719 158.33 114.149L167 102.219L169.85 98.2995L181.86 81.7695L182.2 81.2995L194.46 64.4395C195.09 62.9195 195.64 61.3495 196.11 59.7495C197.37 55.3895 197.98 50.7395 197.85 45.9395Z" fill="#FF0046" stroke="#F5F5F5" stroke-width="5" stroke-miterlimit="10"/>
<path d="M75.8398 176.81V139.57H114.46V177.49" stroke="#F5F5F5" stroke-width="5" stroke-miterlimit="10"/>
<path d="M67.7393 175.669V130.389H122.569V176.499" stroke="#FF0046" stroke-width="5" stroke-miterlimit="10"/>
<path d="M138.56 27.229C138.56 27.229 173.37 11.469 176.33 50.009" stroke="white" stroke-width="5" stroke-miterlimit="10" stroke-linecap="round"/>
<path d="M170.279 51.209H182.919C183.019 51.209 183.079 51.319 183.019 51.409L176.699 60.469C176.649 60.539 176.539 60.539 176.489 60.469L170.169 51.409C170.109 51.329 170.169 51.209 170.269 51.209H170.279Z" fill="white" stroke="white" stroke-width="5" stroke-miterlimit="10" stroke-linecap="round"/>
<path d="M167.62 67.5183C167.62 67.5183 132.81 83.2783 129.85 44.7383" stroke="white" stroke-width="5" stroke-miterlimit="10" stroke-linecap="round"/>
<path d="M135.9 43.5391H123.26C123.16 43.5391 123.1 43.4291 123.16 43.3391L129.48 34.2791C129.53 34.2091 129.64 34.2091 129.69 34.2791L136.01 43.3391C136.07 43.4191 136.01 43.5391 135.91 43.5391H135.9Z" fill="white" stroke="white" stroke-width="5" stroke-miterlimit="10" stroke-linecap="round"/>
</g>
<defs>
<clipPath id="clip0_3379_3939">
<rect width="200.37" height="180.99" fill="white"/>
</clipPath>
</defs>
</svg>
