<svg width="179" height="213" viewBox="0 0 179 213" fill="none" xmlns="http://www.w3.org/2000/svg">
<g clip-path="url(#clip0_3379_3720)">
<path d="M140.78 210.351H37.5602C34.6002 210.351 32.2002 207.931 32.2002 204.951V192.621C32.2002 189.641 34.6002 187.221 37.5602 187.221H140.78C143.74 187.221 146.14 189.641 146.14 192.621V204.951C146.14 207.931 143.74 210.351 140.78 210.351Z" stroke="#F5F5F5" stroke-width="5" stroke-miterlimit="10"/>
<path d="M123.29 160.461H55.6504V187.221H123.29V160.461Z" stroke="#F5F5F5" stroke-width="5" stroke-miterlimit="10"/>
<path d="M54.8799 160.36C54.8799 160.36 74.8499 151 78.8099 128.7L99.4299 128.27C99.4299 128.27 106.38 154.93 124.29 160.57" stroke="#F5F5F5" stroke-width="5" stroke-miterlimit="10"/>
<path d="M41.0903 2.5H138.42C142.65 2.5 146.2 5.67 146.67 9.87C149.37 34.22 153.96 111.38 105.85 125.7C48.5803 142.75 31.6803 84.91 32.7803 10.64C32.8503 6.12 36.5603 2.5 41.0803 2.5H41.0903Z" stroke="#F5F5F5" stroke-width="5" stroke-miterlimit="10"/>
<path d="M142.97 81.7299C142.97 81.7299 176.74 58.3999 175.57 30.2299C175.33 24.5399 170.64 20.0599 164.95 19.9599L147.51 19.6699" stroke="#F5F5F5" stroke-width="5" stroke-miterlimit="10"/>
<path d="M40.56 84.5509C40.56 84.5509 1.35002 58.4009 2.53002 30.2309C2.77002 24.5409 7.46001 20.0609 13.15 19.9609L32.54 19.6309" stroke="#F5F5F5" stroke-width="5" stroke-miterlimit="10"/>
<path d="M147.11 25.4492H157.15C159.67 25.4492 161.78 28.2192 161.82 31.7192C161.91 39.9592 159.7 55.4092 145.15 72.4092" stroke="#F5F5F5" stroke-width="5" stroke-miterlimit="10"/>
<path d="M33.6597 25.4492L20.2397 25.9492C17.5297 26.0492 15.3697 28.9292 15.4597 32.4392C15.6697 40.7392 22.1497 60.3992 38.4297 76.9292" stroke="#F5F5F5" stroke-width="5" stroke-miterlimit="10"/>
<path d="M102.21 78.3999L91.7497 70.6699L81.1697 78.2299C80.7497 78.5299 80.1897 78.1198 80.3497 77.6298L84.4697 65.2899L74.0097 57.5599C73.5897 57.2499 73.8097 56.5899 74.3297 56.5999L87.3297 56.6999L91.4497 44.3599C91.6097 43.8699 92.3097 43.8799 92.4697 44.3599L96.3897 56.7599L109.39 56.8599C109.91 56.8599 110.12 57.5299 109.7 57.8299L99.1197 65.3899L103.04 77.7899C103.2 78.2799 102.63 78.6898 102.21 78.3798V78.3999Z" stroke="#F5F5F5" stroke-width="3" stroke-miterlimit="10"/>
<path d="M110.37 90.1901L91.6698 76.3701L72.7498 89.8901C72.3298 90.1901 71.7698 89.7801 71.9298 89.2901L79.2898 67.2401L60.5898 53.4201C60.1698 53.1101 60.3898 52.4501 60.9098 52.4601L84.1598 52.6501L91.5198 30.6001C91.6798 30.1101 92.3798 30.1201 92.5398 30.6001L99.5498 52.7701L122.8 52.9601C123.32 52.9601 123.53 53.6301 123.11 53.9301L104.19 67.4501L111.2 89.6201C111.36 90.1101 110.79 90.5201 110.37 90.2101V90.1901Z" stroke="#FF0046" stroke-width="3" stroke-miterlimit="10"/>
<path d="M42.75 198.789H136.42" stroke="#FF0046" stroke-width="5" stroke-miterlimit="10" stroke-linecap="round"/>
</g>
<defs>
<clipPath id="clip0_3379_3720">
<rect width="178.1" height="212.85" fill="white"/>
</clipPath>
</defs>
</svg>
