<svg width="217" height="193" viewBox="0 0 217 193" fill="none" xmlns="http://www.w3.org/2000/svg">
<g clip-path="url(#clip0_3379_3836)">
<path d="M184.191 13.82V114.64L168.821 127.77C168.051 95.12 141.341 68.88 108.501 68.88C75.6605 68.88 49.8305 94.24 48.2205 126.12L34.0605 114.62V13.82C34.0605 7.57 39.1305 2.5 45.3805 2.5H172.871C179.121 2.5 184.191 7.57 184.191 13.82Z" stroke="#F5F5F5" stroke-width="5" stroke-miterlimit="10"/>
<path d="M168.841 129.221C168.841 135.261 167.951 141.081 166.291 146.581C158.841 171.451 135.791 189.571 108.501 189.571C81.2106 189.571 58.1406 171.451 50.6806 146.581C49.2706 141.901 48.4306 136.971 48.2106 131.891C48.1606 131.011 48.1406 130.111 48.1406 129.221C48.1406 128.181 48.1706 127.141 48.2206 126.121C49.8306 94.2409 76.2006 68.8809 108.501 68.8809C140.801 68.8809 168.051 95.1209 168.821 127.771C168.821 128.251 168.841 128.741 168.841 129.221Z" fill="#FF0046" stroke="#F5F5F5" stroke-width="5" stroke-miterlimit="10"/>
<path d="M34.0602 114.62L3.74023 89.9999L34.0602 59.9199" stroke="#F5F5F5" stroke-width="5" stroke-miterlimit="10"/>
<path d="M184.19 56.8105L213.24 89.8205L184.19 114.641" stroke="#F5F5F5" stroke-width="5" stroke-miterlimit="10"/>
<path d="M81.0601 170.449C81.2001 171.209 121.09 171.189 134.09 170.749C136.47 170.669 138.29 167.709 138.05 164.329C137.42 155.399 134.21 139.879 119.58 137.839C118.48 137.689 117.39 138.199 116.55 139.229L112.3 144.439C110.56 146.579 107.92 146.239 106.47 143.689L103.75 138.899C102.87 137.349 101.49 136.549 100.1 136.779C93.3401 137.899 76.0901 142.709 81.0601 170.459V170.449Z" fill="white" stroke="#F5F5F5" stroke-width="2" stroke-miterlimit="10"/>
<path d="M126.04 106.229V118.959C126.04 126.549 119.83 132.769 112.23 132.769H107.03C99.4405 132.769 93.2305 126.559 93.2305 118.969V105.909C93.2305 105.629 93.2705 105.359 93.3405 105.099C93.9005 103.079 94.6105 100.819 95.3605 99.0395C96.1105 97.2595 98.3105 96.6295 99.8905 97.7395C103.36 100.199 110.76 103.899 121.2 101.009C122.63 100.619 124.14 101.279 124.77 102.619C125.13 103.379 125.52 104.269 125.86 105.219C125.98 105.549 126.04 105.889 126.04 106.239V106.229Z" fill="white" stroke="#F5F5F5" stroke-width="2" stroke-miterlimit="10"/>
<path d="M126.481 111.859C127.161 110.229 126.691 107.829 125.931 105.629C125.311 103.839 124.511 102.179 123.981 101.179C123.681 100.609 123.021 100.339 122.411 100.539C110.711 104.319 102.621 99.8192 99.2606 97.2992C98.0306 96.3792 96.2606 96.7792 95.6006 98.1692C94.6606 100.139 93.7806 102.989 93.1106 105.429C92.4006 108.039 91.9406 110.169 91.9406 110.169C91.9406 110.169 89.6306 102.999 88.9006 95.2192C88.1706 87.4392 95.8306 88.6592 95.8306 88.6592C97.9006 78.1992 109.381 79.8992 109.381 79.8992C140.191 83.7892 126.481 111.879 126.481 111.879V111.859Z" fill="white" stroke="#F5F5F5" stroke-width="2" stroke-miterlimit="10"/>
<path d="M70.3604 26.5293H151.83" stroke="#F5F5F5" stroke-width="2" stroke-miterlimit="10" stroke-linecap="round"/>
<path d="M70.3604 39.6387H151.83" stroke="#F5F5F5" stroke-width="2" stroke-miterlimit="10" stroke-linecap="round"/>
<path d="M70.3604 52.75H151.83" stroke="#F5F5F5" stroke-width="2" stroke-miterlimit="10" stroke-linecap="round"/>
<path d="M70.3604 20.4902H151.83" stroke="#FF0046" stroke-width="2" stroke-miterlimit="10" stroke-linecap="round"/>
<path d="M70.3604 33.5996H151.83" stroke="#FF0046" stroke-width="2" stroke-miterlimit="10" stroke-linecap="round"/>
<path d="M70.3604 46.7109H151.83" stroke="#FF0046" stroke-width="2" stroke-miterlimit="10" stroke-linecap="round"/>
</g>
<defs>
<clipPath id="clip0_3379_3836">
<rect width="216.79" height="192.07" fill="white"/>
</clipPath>
</defs>
</svg>
