<svg width="219" height="202" viewBox="0 0 219 202" fill="none" xmlns="http://www.w3.org/2000/svg">
<g clip-path="url(#clip0_3379_3874)">
<path d="M82.0199 109.64L58.1599 165.57C57.2699 167.66 58.3799 170.07 60.5499 170.75C69.3699 173.53 90.1399 179.34 96.9599 174.93C98.4999 173.93 100.51 174.12 101.8 175.42C108.4 182.08 126.36 196.21 153.26 186.9C154.32 186.53 155.49 186.66 156.46 187.22C164 191.56 196.95 208.99 210.14 189.98C225.09 168.45 206.32 62.0802 206.32 62.0802C206.32 62.0802 202.54 43.7502 188.57 33.5702C174.6 23.3902 170.68 17.8602 153.81 24.4102C137.68 30.6702 119.42 44.7702 133.99 52.3502C135.24 53.0002 136.04 54.2802 136.06 55.6902C136.12 60.2202 138.1 69.6402 153.82 68.2802C154.36 68.2302 154.89 68.0602 155.37 67.7902C159.77 65.2602 183.83 52.6702 181.45 80.5602C179.5 103.46 169.93 121.58 165.2 129.3C163.94 131.35 161.14 131.77 159.35 130.17C153.31 124.76 139.31 115.13 122.72 123.21C120.73 124.18 118.35 123.35 117.46 121.33C114.34 114.24 105.46 100.88 84.4199 107.48C83.3399 107.82 82.4499 108.61 81.9999 109.66L82.0199 109.64Z" stroke="#F5F5F5" stroke-width="5" stroke-miterlimit="10"/>
<path d="M147.32 146.11C147.32 146.11 129.76 162.84 113.5 143.93" stroke="#FF0046" stroke-width="5" stroke-miterlimit="10" stroke-linecap="round"/>
<path d="M170.23 151.84C170.23 151.84 165.91 134.44 160.01 130.99" stroke="#F5F5F5" stroke-width="5" stroke-miterlimit="10" stroke-linecap="round"/>
<path d="M136.23 53.3597C136.23 53.3597 149.04 51.3997 149.03 49.4297" stroke="#F5F5F5" stroke-width="5" stroke-miterlimit="10" stroke-linecap="round"/>
<path d="M75.7596 2.50023C67.3996 2.50023 59.8896 6.11023 54.7096 11.8602C54.3896 12.2102 53.8496 12.2102 53.5296 11.8602C48.1896 5.94023 40.3896 2.28023 31.7396 2.51023C16.6996 2.89023 4.43962 15.2202 4.13962 30.2602C4.00962 36.7502 6.05962 42.7402 9.59962 47.5802L17.8096 55.1002L53.2296 87.5602C54.2896 88.5302 55.9296 88.5202 56.9696 87.5302L92.7396 53.5602L97.5396 49.0002C97.9296 48.5402 98.2996 48.0602 98.6596 47.5702C102.09 42.8802 104.12 37.1002 104.12 30.8402C104.12 15.1802 91.4196 2.49023 75.7696 2.49023L75.7596 2.50023Z" fill="#FF0046" stroke="#F5F5F5" stroke-width="5" stroke-miterlimit="10"/>
<path d="M2.5 44.7606L43.1 44.4906C43.44 44.4906 43.75 44.3006 43.91 44.0006L48.69 34.7806C49.06 34.0606 50.11 34.1506 50.36 34.9206L55.7 51.2906C55.97 52.1106 57.12 52.1306 57.42 51.3206L66.43 26.6106C66.76 25.7006 68.09 25.8706 68.19 26.8306L70.1 45.5506C70.15 46.0206 70.54 46.3706 71.01 46.3706L104.1 46.0606" stroke="white" stroke-width="5" stroke-miterlimit="10" stroke-linecap="round"/>
<path d="M101.81 175.431C101.81 175.431 95.51 166.601 95.94 162.891" stroke="#F5F5F5" stroke-width="5" stroke-miterlimit="10" stroke-linecap="round"/>
</g>
<defs>
<clipPath id="clip0_3379_3874">
<rect width="218.44" height="201.19" fill="white"/>
</clipPath>
</defs>
</svg>
