<svg width="223" height="250" viewBox="0 0 223 250" fill="none" xmlns="http://www.w3.org/2000/svg">
<g clip-path="url(#clip0_3379_3983)">
<path d="M219.6 72.9291V227.399C219.6 238.059 210.95 246.709 200.29 246.709H86.3998C75.7298 246.709 67.0898 238.059 67.0898 227.399V96.7691C85.1998 90.4591 98.3998 73.6391 99.3798 53.6191H200.29C210.95 53.6191 219.6 62.2591 219.6 72.9291Z" stroke="#F5F5F5" stroke-width="5" stroke-miterlimit="10"/>
<path d="M107.34 126.27H179.34" stroke="#F5F5F5" stroke-width="5" stroke-miterlimit="10" stroke-linecap="round"/>
<path d="M107.34 160.889H179.34" stroke="#F5F5F5" stroke-width="5" stroke-miterlimit="10" stroke-linecap="round"/>
<path d="M107.34 199.58H179.34" stroke="#F5F5F5" stroke-width="5" stroke-miterlimit="10" stroke-linecap="round"/>
<path d="M107.34 116.949H179.34" stroke="#FF0046" stroke-width="5" stroke-miterlimit="10" stroke-linecap="round"/>
<path d="M107.34 151.568H179.34" stroke="#FF0046" stroke-width="5" stroke-miterlimit="10" stroke-linecap="round"/>
<path d="M107.34 190.26H179.34" stroke="#FF0046" stroke-width="5" stroke-miterlimit="10" stroke-linecap="round"/>
<path d="M99.44 51.22C99.44 52.03 99.42 52.83 99.38 53.62C98.4 73.64 85.2 90.46 67.09 96.77C62.12 98.5 56.78 99.44 51.22 99.44C24.59 99.44 3 77.85 3 51.22C3 24.59 24.59 3 51.22 3C77.85 3 99.44 24.59 99.44 51.22Z" stroke="#F5F5F5" stroke-width="6" stroke-miterlimit="10" stroke-linecap="round"/>
<path d="M54.0801 20.6895V53.6195H30.0801" stroke="#F5F5F5" stroke-width="5" stroke-miterlimit="10" stroke-linecap="round"/>
<path d="M46.7401 20.6895V45.7595H30.0801" stroke="#FF0046" stroke-width="5" stroke-miterlimit="10" stroke-linecap="round"/>
</g>
<defs>
<clipPath id="clip0_3379_3983">
<rect width="222.1" height="249.21" fill="white"/>
</clipPath>
</defs>
</svg>
