<svg width="155" height="133" viewBox="0 0 155 133" fill="none" xmlns="http://www.w3.org/2000/svg">
<g clip-path="url(#clip0_3379_3706)">
<path d="M109.35 2.50023C96.8902 2.50023 85.6802 7.89023 77.9502 16.4702C77.4802 17.0002 76.6702 17.0002 76.1902 16.4702C68.2202 7.64023 56.5902 2.19023 43.6802 2.52023C21.2502 3.09023 2.96021 21.4702 2.51021 43.9102C2.31021 53.5802 5.37021 62.5302 10.6502 69.7402L22.8902 80.9602L75.7202 129.38C77.3002 130.83 79.7402 130.81 81.3002 129.33L134.65 78.6702L141.81 71.8702C142.39 71.1802 142.95 70.4702 143.48 69.7402C148.6 62.7502 151.63 54.1202 151.63 44.7802C151.63 21.4202 132.69 2.49023 109.34 2.49023L109.35 2.50023Z" stroke="#F5F5F5" stroke-width="5" stroke-miterlimit="10"/>
<path d="M98.7098 23.5901C90.3498 23.5901 82.8398 27.2001 77.6598 32.9501C77.3398 33.3001 76.7998 33.3001 76.4798 32.9501C71.1398 27.0301 63.3398 23.3701 54.6898 23.6001C39.6498 23.9801 27.3898 36.3101 27.0898 51.3501C26.9598 57.8401 29.0098 63.8301 32.5498 68.6701L40.7598 76.1901L76.1798 108.65C77.2398 109.62 78.8798 109.61 79.9198 108.62L115.69 74.6501L120.49 70.0901C120.88 69.6301 121.25 69.1501 121.61 68.6601C125.04 63.9701 127.07 58.1901 127.07 51.9301C127.07 36.2701 114.37 23.5801 98.7198 23.5801L98.7098 23.5901Z" fill="#FF0046" stroke="#F5F5F5" stroke-width="5" stroke-miterlimit="10"/>
</g>
<defs>
<clipPath id="clip0_3379_3706">
<rect width="154.14" height="132.96" fill="white"/>
</clipPath>
</defs>
</svg>
