<svg width="102" height="101" viewBox="0 0 102 101" fill="none" xmlns="http://www.w3.org/2000/svg">
<path d="M20.7594 5.54341H3.28769C1.20451 5.54341 -0.244542 7.61443 0.469335 9.57146L28.4123 86.1748C35.0047 101.797 54.2749 104.317 65.3519 97.2616C74.3771 91.5131 76.1543 80.4119 76.503 76.4967C76.5824 75.6049 76.1913 74.7538 75.5069 74.1766L62.7711 63.4372C61.2114 62.1219 58.822 62.7137 58.0564 64.6049L53.9087 74.8505C52.8794 77.3931 49.2594 77.3349 48.3124 74.7604L23.575 7.50776C23.1409 6.32761 22.0169 5.54341 20.7594 5.54341Z" fill="white"/>
<path d="M57.1685 53.0203L49.0946 43.3662C48.1913 42.2861 48.1607 40.7232 49.0209 39.6086L50.9287 37.1367C51.912 35.8627 51.5992 34.0208 50.2505 33.1428C48.8313 32.219 48.573 30.246 49.7065 28.988L64.2453 12.8516C64.8974 12.1278 65.9554 11.9343 66.8215 12.3805C67.6556 12.8101 68.6721 12.6479 69.331 11.9801L80.2706 0.892937C80.8343 0.321613 81.6035 0 82.4061 0H98.8449C101.505 0 102.849 3.20567 100.984 5.10292L86.2878 20.0557C85.4557 20.9023 85.5788 22.2925 86.5468 22.9796C87.4651 23.6314 87.6318 24.9281 86.9082 25.7909L71.2787 44.4294C70.8189 44.9777 70.0519 45.1559 69.3974 44.8665C68.7108 44.5628 67.9055 44.775 67.4577 45.3775L61.8776 52.8853C60.7206 54.442 58.4128 54.5081 57.1685 53.0203Z" fill="white"/>
</svg>
