<svg width="240" height="218" viewBox="0 0 240 218" fill="none" xmlns="http://www.w3.org/2000/svg">
<g clip-path="url(#clip0_3379_3711)">
<path d="M68.0994 128.791L193.779 3.12086C194.599 2.30086 195.929 2.30086 196.759 3.12086L236.659 43.0209C237.479 43.8409 237.479 45.1709 236.659 46.0009L110.069 172.591C109.229 173.431 107.879 173.411 107.059 172.561L68.0794 131.751C67.2894 130.921 67.3094 129.621 68.1094 128.811L68.0994 128.791Z" stroke="#F5F5F5" stroke-width="5" stroke-miterlimit="10"/>
<path d="M62.7499 137.701L101.52 177.121C102.04 177.651 101.77 178.561 101.04 178.711L50.5399 189.611C49.8599 189.761 49.2599 189.141 49.4099 188.471L61.1399 138.141C61.3099 137.411 62.2199 137.161 62.7399 137.691L62.7499 137.701Z" stroke="#F5F5F5" stroke-width="5" stroke-miterlimit="10"/>
<path d="M53.4092 171.352C53.4092 171.352 67.1592 173.242 66.6492 186.142" stroke="#F5F5F5" stroke-width="5" stroke-miterlimit="10"/>
<path d="M178.68 18.2109L222.14 60.5009" stroke="#F5F5F5" stroke-width="5" stroke-miterlimit="10"/>
<path d="M147.079 66.6117C147.079 66.6117 172.609 64.7217 172.609 92.1417" stroke="#FF0046" stroke-width="5" stroke-miterlimit="10" stroke-linecap="round"/>
<path d="M14.0496 192.58C16.3096 197.91 23.4796 206.32 46.1496 202.11C50.3796 201.32 54.7896 203.26 56.7096 207.12C57.5196 208.74 58.0696 210.84 58.1196 213.53C58.1496 214.83 57.1096 215.91 55.8096 215.91H17.3796C11.6596 215.91 6.19958 213.07 3.28958 208.15C0.379577 203.23 -0.0104227 197.27 8.92958 191.11C10.7196 189.88 13.2096 190.58 14.0596 192.58H14.0496Z" fill="#FF0046" stroke="#F5F5F5" stroke-width="3" stroke-miterlimit="10"/>
</g>
<defs>
<clipPath id="clip0_3379_3711">
<rect width="239.76" height="217.42" fill="white"/>
</clipPath>
</defs>
</svg>
