<svg width="211" height="203" viewBox="0 0 211 203" fill="none" xmlns="http://www.w3.org/2000/svg">
<g clip-path="url(#clip0_3379_3821)">
<path d="M139.9 15.1289L151.28 71.6289" stroke="#FF0046" stroke-width="5" stroke-miterlimit="10"/>
<path d="M148.6 72.559V175.529C148.6 188.919 137.73 199.789 124.34 199.789H26.76C13.37 199.789 2.5 188.919 2.5 175.529V54.239C2.5 40.819 13.37 29.979 26.76 29.979L116.35 27.209C110.77 30.009 104.34 35.259 98.27 37.079C69.59 45.619 83.24 73.469 107.9 68.509C110.91 67.899 114.07 67.579 117.27 67.449C127.96 66.999 139.38 70.409 148.6 72.559Z" stroke="#F5F5F5" stroke-width="5" stroke-miterlimit="10"/>
<path d="M22.5098 148.459H117.89" stroke="#F5F5F5" stroke-width="5" stroke-miterlimit="10" stroke-linecap="round"/>
<path d="M22.5098 98.75H86.5298" stroke="#F5F5F5" stroke-width="5" stroke-miterlimit="10" stroke-linecap="round"/>
<path d="M22.5098 123.6H118.39" stroke="#F5F5F5" stroke-width="5" stroke-miterlimit="10" stroke-linecap="round"/>
<path d="M22.5098 173.311H118.39" stroke="#F5F5F5" stroke-width="5" stroke-miterlimit="10" stroke-linecap="round"/>
<path d="M61.2697 47.2793H31.1597C30.2264 47.2793 29.4697 48.0359 29.4697 48.9693V79.0793C29.4697 80.0127 30.2264 80.7693 31.1597 80.7693H61.2697C62.2031 80.7693 62.9597 80.0127 62.9597 79.0793V48.9693C62.9597 48.0359 62.2031 47.2793 61.2697 47.2793Z" fill="#FF0046" stroke="#F5F5F5" stroke-width="5" stroke-miterlimit="10"/>
<path d="M167.3 76.3698C167.3 76.3698 159.47 73.4898 148.6 70.9898C139.38 68.8398 127.96 66.9998 117.27 67.4498C114.06 67.5798 110.9 67.8998 107.9 68.5098C83.2398 73.4598 69.5898 45.6198 98.2698 37.0798C104.33 35.2598 110.27 32.7798 115.86 29.9798C136.68 19.5698 152.7 4.83984 152.7 4.83984L167.31 76.3798L167.3 76.3698Z" stroke="#F5F5F5" stroke-width="5" stroke-miterlimit="10"/>
<path d="M117.28 67.4297C117.28 67.4297 121.56 93.9997 111.08 94.4197C100.6 94.8297 100.88 69.0597 100.88 69.0597" stroke="#F5F5F5" stroke-width="5" stroke-miterlimit="10"/>
<path d="M169.52 20.9598C169.52 20.9598 171.73 12.1398 178.89 13.4298C186.06 14.7198 193.96 8.37984 193.96 4.83984" stroke="#F5F5F5" stroke-width="5" stroke-miterlimit="10" stroke-linecap="round"/>
<path d="M172.7 36.76C172.7 36.76 178.12 29.46 184.25 33.4C190.38 37.34 200.11 34.51 201.46 31.25" stroke="#F5F5F5" stroke-width="5" stroke-miterlimit="10" stroke-linecap="round"/>
<path d="M179.83 54.2103C179.83 54.2103 187.9 50.0303 191.68 56.2603C195.46 62.4903 205.44 64.2203 208.09 61.8803" stroke="#F5F5F5" stroke-width="5" stroke-miterlimit="10" stroke-linecap="round"/>
</g>
<defs>
<clipPath id="clip0_3379_3821">
<rect width="210.59" height="202.28" fill="white"/>
</clipPath>
</defs>
</svg>
