<svg width="207" height="226" viewBox="0 0 207 226" fill="none" xmlns="http://www.w3.org/2000/svg">
<g clip-path="url(#clip0_3379_3884)">
<path d="M102.37 41.9511C102.37 41.9511 70.1297 36.8711 60.9297 80.1611" stroke="#FF0046" stroke-width="5" stroke-miterlimit="10" stroke-linecap="round"/>
<path d="M75.7598 25.6008C81.7898 13.3608 109.95 -19.9992 131.56 26.3108" stroke="#F5F5F5" stroke-width="5" stroke-miterlimit="10"/>
<path d="M140.12 196.551C103.03 256.481 72.0498 196.551 72.0498 196.551H140.12Z" fill="#FF0046" stroke="#F5F5F5" stroke-width="5" stroke-miterlimit="10"/>
<path d="M24.3896 149.602H181.08" stroke="#FF0046" stroke-width="5" stroke-miterlimit="10"/>
<path d="M24.3896 156.631H181.08" stroke="#F5F5F5" stroke-width="3" stroke-miterlimit="10"/>
<path d="M27.29 143.182H179.4" stroke="#F5F5F5" stroke-width="3" stroke-miterlimit="10"/>
<path d="M82.5898 194.961C82.5898 194.961 104.7 230.141 129.5 194.961Z" fill="white"/>
<path d="M82.5898 194.961C82.5898 194.961 104.7 230.141 129.5 194.961" stroke="#F5F5F5" stroke-width="5" stroke-miterlimit="10"/>
<path d="M199.62 196.55H6.60983C2.68983 196.55 1.02983 191.66 4.06983 189.19C44.9598 155.97 19.4598 56.7301 68.5598 28.9801C125.8 -3.35992 174.67 50.7501 177.22 115.38C178.89 157.83 190.63 179.38 202.29 189.3C205.21 191.78 203.45 196.55 199.62 196.55Z" stroke="#F5F5F5" stroke-width="5" stroke-miterlimit="10"/>
</g>
<defs>
<clipPath id="clip0_3379_3884">
<rect width="206.25" height="225.68" fill="white"/>
</clipPath>
</defs>
</svg>
