<svg width="246" height="245" viewBox="0 0 246 245" fill="none" xmlns="http://www.w3.org/2000/svg">
<g clip-path="url(#clip0_3379_3895)">
<path d="M208.42 71.88C227.579 71.88 243.11 56.3488 243.11 37.19C243.11 18.0312 227.579 2.5 208.42 2.5C189.262 2.5 173.73 18.0312 173.73 37.19C173.73 56.3488 189.262 71.88 208.42 71.88Z" stroke="#F5F5F5" stroke-width="5" stroke-miterlimit="10"/>
<path d="M235.721 39.2793C235.721 39.2793 230.821 67.6793 201.681 61.9693" stroke="#F5F5F5" stroke-width="5" stroke-miterlimit="10" stroke-linecap="round"/>
<path d="M208.42 242.341C227.579 242.341 243.11 226.81 243.11 207.651C243.11 188.492 227.579 172.961 208.42 172.961C189.262 172.961 173.73 188.492 173.73 207.651C173.73 226.81 189.262 242.341 208.42 242.341Z" stroke="#F5F5F5" stroke-width="5" stroke-miterlimit="10"/>
<path d="M235.721 209.73C235.721 209.73 230.821 238.13 201.681 232.42" stroke="#F5F5F5" stroke-width="5" stroke-miterlimit="10" stroke-linecap="round"/>
<path d="M71.88 123.821C71.88 142.981 56.35 158.511 37.19 158.511C18.03 158.511 2.5 142.981 2.5 123.821C2.5 104.661 18.03 89.1309 37.19 89.1309C51.97 89.1309 64.6 98.3809 69.59 111.401C71.07 115.261 71.88 119.441 71.88 123.821Z" stroke="#F5F5F5" stroke-width="5" stroke-miterlimit="10"/>
<path d="M64.4902 125.91C64.4902 125.91 59.5902 154.31 30.4502 148.6" stroke="#F5F5F5" stroke-width="5" stroke-miterlimit="10" stroke-linecap="round"/>
<path d="M63.8096 101.58C63.8096 101.58 69.4396 108.93 70.9396 115.75L182.3 59.9995C182.3 59.9995 175.7 52.7095 174.41 46.0195L63.8096 101.58Z" fill="#FF0046" stroke="#F5F5F5" stroke-width="5" stroke-miterlimit="10"/>
<path d="M71.6599 129.981C71.6599 129.981 69.9798 137.871 65.0898 144.441L173.94 201.221C173.94 201.221 176.47 191.191 181.33 185.621L71.6599 129.971V129.981Z" fill="#FF0046" stroke="#F5F5F5" stroke-width="5" stroke-miterlimit="10"/>
</g>
<defs>
<clipPath id="clip0_3379_3895">
<rect width="245.61" height="244.84" fill="white"/>
</clipPath>
</defs>
</svg>
