<svg width="149" height="132" viewBox="0 0 149 132" fill="none" xmlns="http://www.w3.org/2000/svg">
<g clip-path="url(#clip0_3379_3855)">
<path d="M135.81 27.0801H12.32C6.89656 27.0801 2.5 31.4766 2.5 36.9001V119.37C2.5 124.794 6.89656 129.19 12.32 129.19H135.81C141.233 129.19 145.63 124.794 145.63 119.37V36.9001C145.63 31.4766 141.233 27.0801 135.81 27.0801Z" stroke="#F5F5F5" stroke-width="5" stroke-miterlimit="10" stroke-linecap="round"/>
<path d="M106.23 2.5H45.0595C38.272 2.5 32.7695 8.00242 32.7695 14.79C32.7695 21.5776 38.272 27.08 45.0595 27.08H106.23C113.017 27.08 118.52 21.5776 118.52 14.79C118.52 8.00242 113.017 2.5 106.23 2.5Z" stroke="#F5F5F5" stroke-width="5" stroke-miterlimit="10" stroke-linecap="round"/>
<path d="M75.63 111.231C93.9051 111.231 108.72 96.4159 108.72 78.1408C108.72 59.8657 93.9051 45.0508 75.63 45.0508C57.3549 45.0508 42.54 59.8657 42.54 78.1408C42.54 96.4159 57.3549 111.231 75.63 111.231Z" stroke="#F5F5F5" stroke-width="5" stroke-miterlimit="10" stroke-linecap="round"/>
<path d="M18.9404 46.4297H36.9704" stroke="#FF0046" stroke-width="9" stroke-miterlimit="10" stroke-linecap="round"/>
<path d="M74.0598 59.7402C74.0598 59.7402 59.9498 61.1902 60.0998 75.3002" stroke="#FF0046" stroke-width="5" stroke-miterlimit="10" stroke-linecap="round"/>
</g>
<defs>
<clipPath id="clip0_3379_3855">
<rect width="148.13" height="131.69" fill="white"/>
</clipPath>
</defs>
</svg>
