<svg width="131" height="130" viewBox="0 0 131 130" fill="none" xmlns="http://www.w3.org/2000/svg">
<g clip-path="url(#clip0_3379_3909)">
<path d="M39.8396 112.111C41.9272 112.111 43.6196 110.418 43.6196 108.331C43.6196 106.243 41.9272 104.551 39.8396 104.551C37.7519 104.551 36.0596 106.243 36.0596 108.331C36.0596 110.418 37.7519 112.111 39.8396 112.111Z" fill="#FF0046" stroke="#F5F5F5" stroke-width="2" stroke-miterlimit="10"/>
<path d="M117.44 29.9504L100.7 119.83C100.14 122.87 97.5504 125.11 94.4604 125.23L41.6804 127.28C39.7904 127.35 38.0304 126.62 36.7604 125.36C37.7604 125.54 38.7904 125.64 39.8404 125.64C49.3904 125.64 57.1304 117.9 57.1304 108.34C57.1304 98.7804 49.3904 91.0504 39.8404 91.0504C35.8804 91.0504 32.2304 92.3804 29.3204 94.6104L17.1904 35.5204C24.0304 34.8904 29.3704 29.1404 29.3704 22.1504H110.92C112.83 22.1504 114.53 22.9604 115.72 24.2204C117.11 25.6904 117.82 27.7804 117.42 29.9704L117.44 29.9504Z" stroke="#F5F5F5" stroke-width="5" stroke-miterlimit="10"/>
<path d="M29.38 22.1299C29.38 29.1199 24.04 34.8799 17.2 35.4999C16.79 35.5399 16.37 35.5599 15.95 35.5599C8.53 35.5599 2.5 29.5399 2.5 22.1199C2.5 14.6999 8.52 8.66992 15.95 8.66992C18.92 8.66992 21.68 9.63992 23.89 11.2799C27.23 13.7099 29.38 17.6599 29.38 22.1099V22.1299Z" fill="#F5F5F5" stroke="#F5F5F5" stroke-width="5" stroke-miterlimit="10"/>
<path d="M23.16 22.1304C23.16 25.8904 20.29 28.9804 16.61 29.3104C16.39 29.3304 16.16 29.3404 15.94 29.3404C11.95 29.3404 8.70996 26.1004 8.70996 22.1204C8.70996 18.1404 11.95 14.9004 15.94 14.9004C17.54 14.9004 19.02 15.4204 20.21 16.3004C22 17.6104 23.16 19.7304 23.16 22.1204V22.1304Z" fill="#FF0046" stroke="white" stroke-width="2" stroke-miterlimit="10"/>
<path d="M39.85 91.0293C35.89 91.0293 32.24 92.3593 29.33 94.5893C25.2 97.7593 22.54 102.729 22.54 108.319C22.54 116.829 28.67 123.889 36.76 125.349C37.76 125.529 38.79 125.629 39.84 125.629C49.39 125.629 57.13 117.889 57.13 108.329C57.13 98.7693 49.39 91.0393 39.84 91.0393L39.85 91.0293Z" stroke="#F5F5F5" stroke-width="5" stroke-miterlimit="10"/>
<path d="M23.8896 11.29C31.3696 2.5 42.6696 2.5 42.6696 2.5H116.88C123.27 2.5 128.47 7.69 128.47 14.09V20.93C128.47 22.74 127 24.2 125.19 24.2H115.74" stroke="#F5F5F5" stroke-width="5" stroke-miterlimit="10"/>
<path d="M35.8201 83.3206L26.8701 40.9906C26.8701 40.9906 35.6501 35.7506 36.0601 29.6406H103.35C105.96 29.6406 107.95 31.9806 107.53 34.5506L94.8601 112.701C94.5701 114.461 93.0701 115.771 91.2901 115.801L63.2501 116.351C63.2501 116.351 73.6201 85.2706 35.8201 83.3006V83.3206Z" fill="#FF0046" stroke="#F5F5F5" stroke-width="2" stroke-miterlimit="10"/>
</g>
<defs>
<clipPath id="clip0_3379_3909">
<rect width="130.97" height="129.78" fill="white"/>
</clipPath>
</defs>
</svg>
