<svg width="117" height="181" viewBox="0 0 117 181" fill="none" xmlns="http://www.w3.org/2000/svg">
<g clip-path="url(#clip0_3379_3919)">
<path d="M4.21038 176.941C4.47038 178.401 81.2204 178.371 106.24 177.511C110.82 177.351 114.32 171.671 113.86 165.161C112.65 147.981 106.47 118.121 78.3204 114.201C76.2104 113.911 74.1004 114.891 72.4904 116.871L64.3104 126.891C60.9504 131.001 55.8804 130.351 53.0904 125.441L47.8504 116.221C46.1504 113.231 43.5104 111.701 40.8304 112.141C27.8304 114.291 -5.36962 123.551 4.19038 176.931L4.21038 176.941Z" stroke="#F5F5F5" stroke-width="5" stroke-miterlimit="10"/>
<path d="M90.7401 53.4003V77.8903C90.7401 92.5003 78.7901 104.46 64.1701 104.46H54.1701C39.5601 104.46 27.6201 92.5103 27.6201 77.9103V52.7803C27.6201 52.2503 27.6901 51.7303 27.8301 51.2203C28.9201 47.3303 30.2701 42.9803 31.7201 39.5603C33.1701 36.1403 37.4001 34.9203 40.4301 37.0703C47.1101 41.8003 61.3401 48.9103 81.4301 43.3503C84.1701 42.5903 87.0801 43.8703 88.3001 46.4503C88.9901 47.9103 89.7401 49.6303 90.4101 51.4403C90.6401 52.0703 90.7501 52.7403 90.7501 53.4103L90.7401 53.4003Z" stroke="#F5F5F5" stroke-width="5" stroke-miterlimit="10"/>
<path d="M91.5909 64.2307C92.9009 61.1007 91.9909 56.4807 90.5309 52.2507C89.3409 48.8107 87.7909 45.6107 86.7809 43.6807C86.2109 42.5907 84.9409 42.0607 83.7609 42.4407C61.2509 49.7107 45.6809 41.0607 39.2309 36.2007C36.8709 34.4207 33.4609 35.2007 32.1909 37.8807C30.3909 41.6607 28.6909 47.1607 27.4109 51.8407C26.0409 56.8607 25.1509 60.9507 25.1509 60.9507C25.1509 60.9507 20.7009 47.1507 19.3009 32.1807C17.9009 17.2107 32.6309 19.5507 32.6309 19.5507C36.6109 -0.569315 58.6909 2.70069 58.6909 2.70069C117.961 10.1907 91.5909 64.2307 91.5909 64.2307Z" stroke="#F5F5F5" stroke-width="5" stroke-miterlimit="10"/>
<path d="M12.2803 169.681L100.23 169.011C103.34 168.991 105.72 166.231 105.28 163.161C103.67 151.811 98.3803 127.541 82.5103 124.491C80.5203 124.111 78.4803 124.811 77.1403 126.331C73.7503 130.201 67.5603 140.281 57.2003 139.301C48.3203 138.461 42.2403 129.381 40.3803 124.771C39.3403 122.211 36.3503 121.091 33.8703 122.301C25.0303 126.611 8.11035 138.691 10.0603 167.601C10.1403 168.781 11.1103 169.701 12.2903 169.691L12.2803 169.681Z" fill="#FF0046" stroke="#F5F5F5" stroke-width="5" stroke-miterlimit="10"/>
</g>
<defs>
<clipPath id="clip0_3379_3919">
<rect width="116.4" height="180.61" fill="white"/>
</clipPath>
</defs>
</svg>
