<svg width="218" height="214" viewBox="0 0 218 214" fill="none" xmlns="http://www.w3.org/2000/svg">
<g clip-path="url(#clip0_3379_3752)">
<path d="M-0.5 33C-0.5 14.7746 14.2746 0 32.5 0H185C203.225 0 218 14.7746 218 33V181.5C218 199.725 203.225 214.5 185 214.5H32.5C14.2746 214.5 -0.5 199.725 -0.5 181.5V33Z" fill="#210124"/>
<path d="M2.5 58.35V28.82C2.5 14.29 14.29 2.5 28.83 2.5H57.92" stroke="#F5F5F5" stroke-width="5" stroke-miterlimit="10"/>
<path d="M215.16 58.3502V28.8202C215.16 14.2802 203.37 2.49023 188.83 2.49023H159.74" stroke="#F5F5F5" stroke-width="5" stroke-miterlimit="10"/>
<path d="M2.5 155.52V185.05C2.5 199.59 14.29 211.38 28.83 211.38H57.92" stroke="#F5F5F5" stroke-width="5" stroke-miterlimit="10"/>
<path d="M215.16 155.52V185.05C215.16 199.59 203.37 211.38 188.83 211.38H159.74" stroke="#F5F5F5" stroke-width="5" stroke-miterlimit="10"/>
<path d="M71.8802 32.1699H31.9502V72.5299H71.8802V32.1699Z" stroke="#F5F5F5" stroke-width="5" stroke-miterlimit="10"/>
<path d="M71.8802 142.27H31.9502V182.63H71.8802V142.27Z" stroke="#F5F5F5" stroke-width="5" stroke-miterlimit="10"/>
<path d="M181.85 32.1699H141.92V72.5299H181.85V32.1699Z" stroke="#F5F5F5" stroke-width="5" stroke-miterlimit="10"/>
<path d="M58.7703 45.4297H45.0703V59.2797H58.7703V45.4297Z" fill="#FF0046" stroke="#F5F5F5" stroke-width="5" stroke-miterlimit="10"/>
<path d="M169.82 46.3008H156.12V60.1508H169.82V46.3008Z" fill="#FF0046" stroke="#F5F5F5" stroke-width="5" stroke-miterlimit="10"/>
<path d="M59.6404 155.52H45.9404V169.37H59.6404V155.52Z" fill="#FF0046" stroke="#F5F5F5" stroke-width="5" stroke-miterlimit="10"/>
<path d="M37.6299 128.17H57.2599V86.28V80.5" stroke="#F5F5F5" stroke-width="7" stroke-miterlimit="10"/>
<path d="M30.6504 95.6602H66.1004H80.7204V113.55" stroke="#F5F5F5" stroke-width="7" stroke-miterlimit="10"/>
<path d="M54.0502 110.25H47.4502V116.85H54.0502V110.25Z" fill="#F5F5F5"/>
<path d="M48.3695 110.25H41.7695V116.85H48.3695V110.25Z" fill="#F5F5F5"/>
<path d="M37.2504 98.9609H30.6504V105.561H37.2504V98.9609Z" fill="#F5F5F5"/>
<path d="M73.3598 85.7402H66.7598V92.3402H73.3598V85.7402Z" fill="#F5F5F5"/>
<path d="M90.56 100.029H83.96V106.629H90.56V100.029Z" fill="#F5F5F5"/>
<path d="M90.56 131.99H83.96V138.59H90.56V131.99Z" fill="#F5F5F5"/>
<path d="M84.56 82.9805H77.96V89.5805H84.56V82.9805Z" fill="#F5F5F5"/>
<path d="M84.56 76.5703H77.96V83.1703H84.56V76.5703Z" fill="#F5F5F5"/>
<path d="M94.9301 76.5703H88.3301V83.1703H94.9301V76.5703Z" fill="#F5F5F5"/>
<path d="M90.56 86.2793H83.96V92.8793H90.56V86.2793Z" fill="#F5F5F5"/>
<path d="M99.2396 86.2793H92.6396V92.8793H99.2396V86.2793Z" fill="#F5F5F5"/>
<path d="M101.53 76.5703H94.9297V83.1703H101.53V76.5703Z" fill="#F5F5F5"/>
<path d="M98.2299 53.9902H91.6299V60.5902H98.2299V53.9902Z" fill="#F5F5F5"/>
<path d="M91.6303 60.4199H85.0303V67.0199H91.6303V60.4199Z" fill="#F5F5F5"/>
<path d="M98.2299 60.4199H91.6299V67.0199H98.2299V60.4199Z" fill="#F5F5F5"/>
<path d="M130.34 38.6602H123.74V45.2602H130.34V38.6602Z" fill="#F5F5F5"/>
<path d="M130.34 32.1699H123.74V38.7699H130.34V32.1699Z" fill="#F5F5F5"/>
<path d="M100.45 38.3906H93.8496V44.9906H100.45V38.3906Z" fill="#F5F5F5"/>
<path d="M94.1596 38.3906H87.5596V44.9906H94.1596V38.3906Z" fill="#F5F5F5"/>
<path d="M86.2699 38.3906H79.6699V44.9906H86.2699V38.3906Z" fill="#F5F5F5"/>
<path d="M86.2699 31.8809H79.6699V38.4809H86.2699V31.8809Z" fill="#F5F5F5"/>
<path d="M86.2699 47.3906H79.6699V53.9906H86.2699V47.3906Z" fill="#F5F5F5"/>
<path d="M123.74 32.1699H117.14V38.7699H123.74V32.1699Z" fill="#F5F5F5"/>
<path d="M127.04 63.2598H120.44V69.8598H127.04V63.2598Z" fill="#F5F5F5"/>
<path d="M136.53 49.0508H129.93V55.6508H136.53V49.0508Z" fill="#F5F5F5"/>
<path d="M136.53 57.9707H129.93V64.5707H136.53V57.9707Z" fill="#F5F5F5"/>
<path d="M105.84 86.2793H99.2402V92.8793H105.84V86.2793Z" fill="#F5F5F5"/>
<path d="M110.62 61.2695H104.02V67.8695H110.62V61.2695Z" fill="#F5F5F5"/>
<path d="M121.88 76.5703H115.28V83.1703H121.88V76.5703Z" fill="#F5F5F5"/>
<path d="M116.53 86.2793H109.93V92.8793H116.53V86.2793Z" fill="#F5F5F5"/>
<path d="M129.3 86.2793H122.7V92.8793H129.3V86.2793Z" fill="#F5F5F5"/>
<path d="M129.3 80.5H122.7V87.1H129.3V80.5Z" fill="#F5F5F5"/>
<path d="M147 86.1797H140.4V92.7797H147V86.1797Z" fill="#F5F5F5"/>
<path d="M147 79.7793H140.4V86.3793H147V79.7793Z" fill="#F5F5F5"/>
<path d="M135.9 86.2793H129.3V92.8793H135.9V86.2793Z" fill="#F5F5F5"/>
<path d="M135.9 80.5H129.3V87.1H135.9V80.5Z" fill="#F5F5F5"/>
<path d="M153.6 86.1797H147V92.7797H153.6V86.1797Z" fill="#F5F5F5"/>
<path d="M159.42 86.1797H152.82V92.7797H159.42V86.1797Z" fill="#F5F5F5"/>
<path d="M169.57 86.1797H162.97V92.7797H169.57V86.1797Z" fill="#F5F5F5"/>
<path d="M118.58 53.9902V73.9502" stroke="#F5F5F5" stroke-width="7" stroke-miterlimit="10"/>
<path d="M91.4101 151.381H83.1201V159.671H91.4101V151.381Z" fill="#F5F5F5"/>
<path d="M91.4101 171.02H83.1201V179.31H91.4101V171.02Z" fill="#F5F5F5"/>
<path d="M91.4101 141.561H83.1201V149.851H91.4101V141.561Z" fill="#F5F5F5"/>
<path d="M91.4101 131.141H83.1201V139.431H91.4101V131.141Z" fill="#F5F5F5"/>
<path d="M78 105.26H69.71V113.55H78V105.26Z" fill="#F5F5F5"/>
<path d="M78 113.26H69.71V121.55H78V113.26Z" fill="#F5F5F5"/>
<path d="M78 123.371H69.71V131.661H78V123.371Z" fill="#F5F5F5"/>
<path d="M91.4101 122.779H83.1201V131.069H91.4101V122.779Z" fill="#F5F5F5"/>
<path d="M113.23 49.5199H102.97V32.1699H93.0498" stroke="#F5F5F5" stroke-width="7" stroke-miterlimit="10"/>
<path d="M133.23 158.41C147.363 158.41 158.82 146.953 158.82 132.82C158.82 118.688 147.363 107.23 133.23 107.23C119.097 107.23 107.64 118.688 107.64 132.82C107.64 146.953 119.097 158.41 133.23 158.41Z" stroke="#F5F5F5" stroke-width="5" stroke-miterlimit="10"/>
<path d="M189.025 184.997L162.674 156.709C161.191 155.117 158.698 155.029 157.105 156.512L156.842 156.757C155.25 158.24 155.161 160.733 156.645 162.326L182.996 190.614C184.479 192.206 186.972 192.294 188.564 190.811L188.828 190.566C190.42 189.082 190.508 186.589 189.025 184.997Z" fill="#FF0046" stroke="#F5F5F5" stroke-width="5" stroke-miterlimit="10"/>
<path d="M151.56 151.871L156.63 156.941" stroke="#F5F5F5" stroke-width="5" stroke-miterlimit="10"/>
<path d="M133.229 149.851C142.635 149.851 150.259 142.226 150.259 132.821C150.259 123.416 142.635 115.791 133.229 115.791C123.824 115.791 116.199 123.416 116.199 132.821C116.199 142.226 123.824 149.851 133.229 149.851Z" fill="#FF0046" stroke="#F5F5F5" stroke-width="5" stroke-miterlimit="10"/>
</g>
<defs>
<clipPath id="clip0_3379_3752">
<rect width="217.66" height="213.88" fill="white"/>
</clipPath>
</defs>
</svg>
