<svg width="213" height="175" viewBox="0 0 213 175" fill="none" xmlns="http://www.w3.org/2000/svg">
<g clip-path="url(#clip0_3379_3959)">
<path d="M2.5 168.02V128.24C2.5 124.42 5.59 121.33 9.41 121.33H58.86C62.68 121.33 65.77 124.42 65.77 128.24V171.95" stroke="#F5F5F5" stroke-width="5" stroke-miterlimit="10" stroke-linecap="round"/>
<path d="M147.81 171.951V103.371C147.81 99.5509 144.72 96.4609 140.9 96.4609H72.6795C68.8595 96.4609 65.7695 99.5509 65.7695 103.371V122.701" stroke="#F5F5F5" stroke-width="5" stroke-miterlimit="10" stroke-linecap="round"/>
<path d="M209.77 171.95V140.9C209.77 137.08 206.68 133.99 202.86 133.99H147.81" stroke="#F5F5F5" stroke-width="5" stroke-miterlimit="10" stroke-linecap="round"/>
<path d="M126.19 66.191L112.22 56.201C109.8 54.471 106.53 54.491 104.14 56.261L90.3204 66.461C88.4604 67.831 85.9304 66.021 86.6304 63.821L91.8104 47.441C92.7104 44.601 91.6804 41.511 89.2504 39.771L75.2804 29.781C73.4004 28.441 74.3404 25.471 76.6504 25.451L93.8304 25.321C96.8104 25.301 99.4304 23.361 100.33 20.521L105.51 4.14096C106.21 1.94096 109.32 1.91096 110.05 4.10096L115.49 20.391C116.43 23.211 119.09 25.111 122.06 25.091L139.24 24.961C141.55 24.941 142.54 27.891 140.68 29.271L126.86 39.471C124.46 41.241 123.48 44.351 124.42 47.171L129.86 63.461C130.59 65.651 128.09 67.501 126.21 66.161L126.19 66.191Z" fill="#FF0046" stroke="#F5F5F5" stroke-width="5" stroke-miterlimit="10" stroke-linecap="round"/>
<path d="M99.8417 151.493V160.221H98.7849V152.601H98.7338L96.6031 154.016V152.942L98.7849 151.493H99.8417Z" fill="#FF0046"/>
<path d="M99.8417 151.493H100.342V150.993H99.8417V151.493ZM99.8417 160.221V160.721H100.342V160.221H99.8417ZM98.7849 160.221H98.2849V160.721H98.7849V160.221ZM98.7849 152.601H99.2849V152.101H98.7849V152.601ZM98.7338 152.601V152.101H98.5829L98.4572 152.185L98.7338 152.601ZM96.6031 154.016H96.1031V154.948L96.8797 154.433L96.6031 154.016ZM96.6031 152.942L96.3265 152.526L96.1031 152.674V152.942H96.6031ZM98.7849 151.493V150.993H98.634L98.5083 151.077L98.7849 151.493ZM99.3417 151.493V160.221H100.342V151.493H99.3417ZM99.8417 159.721H98.7849V160.721H99.8417V159.721ZM99.2849 160.221V152.601H98.2849V160.221H99.2849ZM98.7849 152.101H98.7338V153.101H98.7849V152.101ZM98.4572 152.185L96.3265 153.6L96.8797 154.433L99.0103 153.018L98.4572 152.185ZM97.1031 154.016V152.942H96.1031V154.016H97.1031ZM96.8797 153.359L99.0615 151.91L98.5083 151.077L96.3265 152.526L96.8797 153.359ZM98.7849 151.993H99.8417V150.993H98.7849V151.993Z" fill="#F5F5F5"/>
</g>
<defs>
<clipPath id="clip0_3379_3959">
<rect width="212.27" height="174.45" fill="white"/>
</clipPath>
</defs>
</svg>
