<svg width="172" height="177" viewBox="0 0 172 177" fill="none" xmlns="http://www.w3.org/2000/svg">
<g clip-path="url(#clip0_3379_3952)">
<path d="M54.01 105.52C82.4582 105.52 105.52 82.4582 105.52 54.01C105.52 25.5618 82.4582 2.5 54.01 2.5C25.5618 2.5 2.5 25.5618 2.5 54.01C2.5 82.4582 25.5618 105.52 54.01 105.52Z" stroke="#F5F5F5" stroke-width="5" stroke-miterlimit="10"/>
<path d="M167.544 160.354L112.026 100.756C109.726 98.2868 105.86 98.1497 103.391 100.45L100.2 103.422C97.7312 105.722 97.5942 109.588 99.8942 112.057L155.412 171.655C157.712 174.124 161.578 174.261 164.047 171.961L167.237 168.989C169.707 166.689 169.844 162.823 167.544 160.354Z" fill="#FF0046" stroke="#F5F5F5" stroke-width="5" stroke-miterlimit="10"/>
<path d="M90.8896 92.3594L101.1 102.569" stroke="#F5F5F5" stroke-width="5" stroke-miterlimit="10"/>
<path d="M54.0105 88.2905C72.9428 88.2905 88.2905 72.9428 88.2905 54.0105C88.2905 35.0781 72.9428 19.7305 54.0105 19.7305C35.0781 19.7305 19.7305 35.0781 19.7305 54.0105C19.7305 72.9428 35.0781 88.2905 54.0105 88.2905Z" fill="#FF0046" stroke="#F5F5F5" stroke-width="5" stroke-miterlimit="10"/>
</g>
<defs>
<clipPath id="clip0_3379_3952">
<rect width="171.68" height="176.11" fill="white"/>
</clipPath>
</defs>
</svg>
