<svg width="117" height="181" viewBox="0 0 117 181" fill="none" xmlns="http://www.w3.org/2000/svg">
<path d="M54.8666 107.678C54.9972 108.412 93.5738 108.397 106.15 107.964C108.452 107.884 110.211 105.029 109.98 101.757C109.371 93.1219 106.265 78.1134 92.1162 76.1431C91.0557 75.9974 89.9951 76.4899 89.1859 77.4852L85.0744 82.5215C83.3856 84.5873 80.8373 84.2606 79.4349 81.7927L76.8012 77.1584C75.9467 75.6556 74.6198 74.8866 73.2727 75.1077C66.7386 76.1884 50.0514 80.8427 54.8565 107.673L54.8666 107.678Z" stroke="white" stroke-width="5" stroke-miterlimit="10"/>
<path d="M98.3586 45.5779V57.8872C98.3586 65.2306 92.3522 71.242 85.0038 71.242H79.9775C72.6342 71.242 66.6328 65.2356 66.6328 57.8973V45.2662C66.6328 44.9999 66.668 44.7385 66.7384 44.4821C67.2862 42.5269 67.9648 40.3405 68.6936 38.6215C69.4224 36.9025 71.5485 36.2893 73.0715 37.37C76.429 39.7474 83.5814 43.3211 93.6792 40.5265C95.0563 40.1445 96.519 40.7878 97.1322 42.0846C97.479 42.8185 97.856 43.683 98.1927 44.5927C98.3083 44.9094 98.3636 45.2461 98.3636 45.5829L98.3586 45.5779Z" fill="#210124" stroke="white" stroke-width="5" stroke-miterlimit="10"/>
<path d="M98.7883 51.0255C99.4467 49.4523 98.9893 47.1302 98.2555 45.0041C97.6574 43.275 96.8783 41.6666 96.3707 40.6965C96.0842 40.1487 95.4458 39.8823 94.8527 40.0733C83.5386 43.7274 75.7127 39.3797 72.4708 36.9369C71.2846 36.0422 69.5706 36.4343 68.9323 37.7813C68.0275 39.6812 67.1731 42.4457 66.5297 44.798C65.8411 47.3212 65.3938 49.3769 65.3938 49.3769C65.3938 49.3769 63.1571 42.4407 62.4534 34.9163C61.7497 27.392 69.1534 28.5682 69.1534 28.5682C71.1539 18.4553 82.2519 20.0989 82.2519 20.0989C112.043 23.8636 98.7883 51.0255 98.7883 51.0255Z" fill="#210124" stroke="white" stroke-width="5" stroke-miterlimit="10"/>
<path d="M58.9242 104.034L103.13 103.698C104.693 103.688 105.89 102.3 105.669 100.757C104.859 95.0525 102.2 82.8537 94.2237 81.3207C93.2235 81.1297 92.1981 81.4816 91.5246 82.2455C89.8207 84.1907 86.7094 89.2572 81.5022 88.7646C77.0389 88.3424 73.9829 83.7786 73.0481 81.4614C72.5253 80.1747 71.0225 79.6118 69.776 80.22C65.3327 82.3863 56.8283 88.458 57.8084 102.989C57.8486 103.582 58.3362 104.044 58.9293 104.039L58.9242 104.034Z" fill="#FF0046" stroke="white" stroke-width="5" stroke-miterlimit="10"/>
<path d="M3.86655 107.678C3.99724 108.412 42.5738 108.397 55.1495 107.964C57.4516 107.884 59.2108 105.029 58.9796 101.757C58.3714 93.1219 55.2652 78.1134 41.1162 76.1431C40.0557 75.9974 38.9951 76.4899 38.1859 77.4851L34.0744 82.5215C32.3856 84.5873 29.8373 84.2606 28.4349 81.7927L25.8012 77.1584C24.9467 75.6556 23.6198 74.8866 22.2727 75.1077C15.7386 76.1884 -0.948608 80.8427 3.8565 107.673L3.86655 107.678Z" stroke="white" stroke-width="5" stroke-miterlimit="10"/>
<path d="M47.3586 45.5798V57.8892C47.3586 65.2325 41.3522 71.2439 34.0038 71.2439H28.9775C21.6342 71.2439 15.6328 65.2376 15.6328 57.8992V45.2682C15.6328 45.0018 15.668 44.7404 15.7384 44.4841C16.2862 42.5289 16.9648 40.3425 17.6936 38.6235C18.4224 36.9045 20.5485 36.2913 22.0715 37.3719C25.429 39.7494 32.5814 43.323 42.6792 40.5284C44.0563 40.1464 45.519 40.7898 46.1322 42.0866C46.479 42.8204 46.856 43.6849 47.1927 44.5947C47.3083 44.9113 47.3636 45.2481 47.3636 45.5849L47.3586 45.5798Z" fill="#210124" stroke="white" stroke-width="5" stroke-miterlimit="10"/>
<path d="M47.7863 51.0255C48.4448 49.4523 47.9874 47.1302 47.2536 45.0041C46.6554 43.275 45.8764 41.6666 45.3687 40.6966C45.0822 40.1487 44.4439 39.8823 43.8508 40.0733C32.5366 43.7274 24.7107 39.3797 21.4688 36.9369C20.2826 36.0422 18.5687 36.4343 17.9303 37.7813C17.0256 39.6812 16.1711 42.4457 15.5278 44.798C14.8392 47.3212 14.3918 49.3769 14.3918 49.3769C14.3918 49.3769 12.1551 42.4407 11.4515 34.9163C10.7478 27.392 18.1515 28.5682 18.1515 28.5682C20.1519 18.4553 31.2499 20.0989 31.2499 20.0989C61.0406 23.8636 47.7863 51.0255 47.7863 51.0255Z" fill="#210124" stroke="white" stroke-width="5" stroke-miterlimit="10"/>
<path d="M7.92229 104.029L52.1283 103.692C53.6915 103.682 54.8877 102.294 54.6666 100.751C53.8573 95.0466 51.1985 82.8479 43.2218 81.3149C42.2215 81.1239 41.1962 81.4757 40.5227 82.2397C38.8188 84.1849 35.7075 89.2513 30.5003 88.7588C26.037 88.3366 22.981 83.7727 22.0461 81.4556C21.5234 80.1689 20.0205 79.6059 18.774 80.2141C14.3308 82.3804 5.82634 88.4522 6.80646 102.983C6.84667 103.576 7.33422 104.039 7.92732 104.034L7.92229 104.029Z" fill="#FF0046" stroke="white" stroke-width="5" stroke-miterlimit="10"/>
<path d="M26.0058 164.77C26.1575 165.622 70.9339 165.604 85.5307 165.103C88.2027 165.009 90.2446 161.695 89.9763 157.897C89.2704 147.875 85.6649 130.454 69.242 128.167C68.011 127.998 66.7801 128.57 65.8408 129.725L61.0685 135.571C59.1083 137.968 56.1504 137.589 54.5227 134.725L51.4657 129.346C50.4739 127.601 48.9337 126.709 47.3701 126.965C39.7859 128.22 20.4168 133.622 25.9942 164.764L26.0058 164.77Z" stroke="white" stroke-width="5" stroke-miterlimit="10"/>
<path d="M76.4886 92.6905V106.978C76.4886 115.502 69.5169 122.479 60.9875 122.479H55.1535C46.6299 122.479 39.6641 115.507 39.6641 106.99V92.3288C39.6641 92.0196 39.7049 91.7162 39.7866 91.4187C40.4225 89.1492 41.2101 86.6114 42.056 84.6162C42.902 82.6209 45.3698 81.9091 47.1375 83.1635C51.0346 85.923 59.3365 90.071 71.0571 86.8273C72.6557 86.3839 74.3534 87.1306 75.0651 88.6358C75.4677 89.4876 75.9052 90.491 76.2961 91.547C76.4303 91.9146 76.4945 92.3054 76.4945 92.6963L76.4886 92.6905Z" fill="#210124" stroke="white" stroke-width="5" stroke-miterlimit="10"/>
<path d="M76.985 99.0118C77.7493 97.1857 77.2184 94.4904 76.3666 92.0226C75.6724 90.0157 74.7681 88.1488 74.1788 87.0228C73.8463 86.3869 73.1054 86.0777 72.4169 86.2994C59.2845 90.5407 50.2008 85.4943 46.4379 82.6589C45.061 81.6204 43.0716 82.0755 42.3307 83.639C41.2806 85.8443 40.2888 89.053 39.542 91.7834C38.7428 94.7121 38.2235 97.0982 38.2235 97.0982C38.2235 97.0982 35.6274 89.0472 34.8106 80.3136C33.9938 71.58 42.5874 72.9452 42.5874 72.9452C44.9094 61.2071 57.791 63.1148 57.791 63.1148C92.3694 67.4845 76.985 99.0118 76.985 99.0118Z" fill="#210124" stroke="white" stroke-width="5" stroke-miterlimit="10"/>
<path d="M30.7138 160.534L82.0243 160.143C83.8387 160.131 85.2272 158.521 84.9705 156.73C84.0312 150.109 80.945 135.949 71.6864 134.17C70.5254 133.948 69.3352 134.357 68.5535 135.243C66.5757 137.501 62.9644 143.382 56.9204 142.81C51.7397 142.32 48.1926 137.023 47.1075 134.333C46.5007 132.84 44.7563 132.186 43.3095 132.892C38.1522 135.407 28.281 142.454 29.4186 159.32C29.4653 160.009 30.0312 160.546 30.7196 160.54L30.7138 160.534Z" fill="#FF0046" stroke="white" stroke-width="5" stroke-miterlimit="10"/>
</svg>
