<svg width="180" height="160" viewBox="0 0 180 160" fill="none" xmlns="http://www.w3.org/2000/svg">
<g clip-path="url(#clip0_3379_3998)">
<path d="M60.6798 106.02H29.2598V156.93H60.6798V106.02Z" stroke="#F5F5F5" stroke-width="5" stroke-miterlimit="10"/>
<path d="M54.5597 111.859H35.3896V155.929H54.5597V111.859Z" fill="#FF0046" stroke="#F5F5F5" stroke-width="2" stroke-miterlimit="10"/>
<path d="M85.9198 91.6406H66.8398V157.681H85.9198V91.6406Z" fill="#FF0046" stroke="#F5F5F5" stroke-width="2" stroke-miterlimit="10"/>
<path d="M117.35 100.881H98.2695V155.931H117.35V100.881Z" fill="#FF0046" stroke="#F5F5F5" stroke-width="2" stroke-miterlimit="10"/>
<path d="M148.77 70.8398H129.69V156.53H148.77V70.8398Z" fill="#FF0046" stroke="#F5F5F5" stroke-width="2" stroke-miterlimit="10"/>
<path d="M92.0997 85.3691H60.6797V156.929H92.0997V85.3691Z" stroke="#F5F5F5" stroke-width="5" stroke-miterlimit="10"/>
<path d="M123.52 94.9707H92.0996V156.931H123.52V94.9707Z" stroke="#F5F5F5" stroke-width="5" stroke-miterlimit="10"/>
<path d="M154.94 64.7109H123.52V156.931H154.94V64.7109Z" stroke="#F5F5F5" stroke-width="5" stroke-miterlimit="10"/>
<path d="M2.5 156.93H177.05" stroke="#F5F5F5" stroke-width="5" stroke-miterlimit="10" stroke-linecap="round"/>
<path d="M160.61 9.08008L99.9705 59.6301L75.3205 39.9101L11.2305 101.08" stroke="#F5F5F5" stroke-width="5" stroke-miterlimit="10" stroke-linecap="round"/>
<path d="M15.7495 104.741C12.0495 107.241 7.03951 106.271 4.53951 102.581C2.03951 98.8906 3.00951 93.8706 6.69951 91.3706C10.3895 88.8706 15.4095 89.8406 17.9095 93.5306C18.1195 93.8406 18.2995 94.1506 18.4495 94.4706C20.2295 98.0406 19.1395 102.451 15.7495 104.741Z" fill="white" stroke="#F5F5F5" stroke-width="5" stroke-miterlimit="10" stroke-linecap="round"/>
<path d="M13.9 101.999C11.72 103.469 8.75996 102.899 7.28996 100.729C5.81996 98.5491 6.38996 95.5891 8.55996 94.1191C10.74 92.6491 13.7 93.2191 15.17 95.3891C15.29 95.5691 15.4 95.7591 15.49 95.9391C16.54 98.0491 15.9 100.649 13.9 101.999Z" fill="white" stroke="#F5F5F5" stroke-width="2" stroke-miterlimit="10" stroke-linecap="round"/>
<path d="M73.5602 48.4896C78.0172 48.4896 81.6302 44.8765 81.6302 40.4196C81.6302 35.9627 78.0172 32.3496 73.5602 32.3496C69.1033 32.3496 65.4902 35.9627 65.4902 40.4196C65.4902 44.8765 69.1033 48.4896 73.5602 48.4896Z" fill="white" stroke="#F5F5F5" stroke-width="5" stroke-miterlimit="10" stroke-linecap="round"/>
<path d="M100.17 63.5306C104.627 63.5306 108.24 59.9176 108.24 55.4606C108.24 51.0037 104.627 47.3906 100.17 47.3906C95.7127 47.3906 92.0996 51.0037 92.0996 55.4606C92.0996 59.9176 95.7127 63.5306 100.17 63.5306Z" fill="white" stroke="#F5F5F5" stroke-width="5" stroke-miterlimit="10" stroke-linecap="round"/>
<path d="M160.61 18.64C165.067 18.64 168.68 15.0269 168.68 10.57C168.68 6.11306 165.067 2.5 160.61 2.5C156.153 2.5 152.54 6.11306 152.54 10.57C152.54 15.0269 156.153 18.64 160.61 18.64Z" fill="white" stroke="#F5F5F5" stroke-width="5" stroke-miterlimit="10" stroke-linecap="round"/>
<path d="M76.23 44.3702C74.05 45.8402 71.09 45.2702 69.62 43.1002C68.15 40.9202 68.72 37.9602 70.89 36.4902C73.06 35.0202 76.03 35.5902 77.5 37.7602C77.62 37.9402 77.73 38.1302 77.82 38.3102C78.87 40.4202 78.23 43.0202 76.23 44.3702Z" fill="white" stroke="#F5F5F5" stroke-width="2" stroke-miterlimit="10" stroke-linecap="round"/>
<path d="M102.84 59.3995C100.66 60.8695 97.7004 60.2995 96.2304 58.1295C94.7604 55.9495 95.3304 52.9895 97.5004 51.5195C99.6704 50.0495 102.64 50.6195 104.11 52.7895C104.23 52.9695 104.34 53.1595 104.43 53.3395C105.48 55.4495 104.84 58.0495 102.84 59.3995Z" fill="white" stroke="#F5F5F5" stroke-width="2" stroke-miterlimit="10" stroke-linecap="round"/>
<path d="M163.28 14.5205C161.1 15.9905 158.14 15.4205 156.67 13.2505C155.2 11.0705 155.77 8.11055 157.94 6.64055C160.12 5.17055 163.08 5.74055 164.55 7.91055C164.67 8.09055 164.78 8.28055 164.87 8.46055C165.92 10.5705 165.28 13.1705 163.28 14.5205Z" fill="white" stroke="#F5F5F5" stroke-width="2" stroke-miterlimit="10" stroke-linecap="round"/>
</g>
<defs>
<clipPath id="clip0_3379_3998">
<rect width="179.55" height="159.43" fill="white"/>
</clipPath>
</defs>
</svg>
